<mxfile host="Electron" modified="2024-02-18T09:54:16.645Z" agent="Mozilla/5.0 (Macintosh; Intel Mac OS X 10_15_7) AppleWebKit/537.36 (KHTML, like Gecko) draw.io/23.0.2 Chrome/120.0.6099.109 Electron/28.1.0 Safari/537.36" etag="Dk2uqvgXIG5zXEO5eo-f" version="23.0.2" type="device">
  <diagram name="Page-1" id="CLZIvq-MvbvmnBbgFBHZ">
    <mxGraphModel dx="2074" dy="1419" grid="1" gridSize="10" guides="1" tooltips="1" connect="1" arrows="1" fold="1" page="1" pageScale="1" pageWidth="1920" pageHeight="1200" math="0" shadow="0">
      <root>
        <mxCell id="0" />
        <mxCell id="1" parent="0" />
        <mxCell id="02hL3_lGpZv-LCDFnMkL-3" value="" style="rounded=0;whiteSpace=wrap;html=1;fillColor=#CCE5FF;" vertex="1" parent="1">
          <mxGeometry y="360" width="1920" height="40" as="geometry" />
        </mxCell>
        <mxCell id="02hL3_lGpZv-LCDFnMkL-1" value="&lt;b&gt;&lt;font style=&quot;font-size: 24px;&quot;&gt;LT Order Pause / Resume / Extend Advanced Test 1a [PRE-AT-001A], 1b*&amp;nbsp;&lt;/font&gt;&lt;/b&gt;&lt;b style=&quot;border-color: var(--border-color);&quot;&gt;&lt;font style=&quot;border-color: var(--border-color); font-size: 24px;&quot;&gt;[PRE-AT-001B]&lt;/font&gt;&lt;/b&gt;" style="rounded=0;whiteSpace=wrap;html=1;fillColor=#f5f5f5;fontColor=#333333;strokeColor=#666666;align=left;" vertex="1" parent="1">
          <mxGeometry width="1920" height="40" as="geometry" />
        </mxCell>
        <mxCell id="02hL3_lGpZv-LCDFnMkL-2" value="LT Order A 0-&amp;gt;1&lt;br&gt;SR100, 2 Intervals" style="text;html=1;align=left;verticalAlign=middle;whiteSpace=wrap;rounded=0;fontFamily=Courier New;fontStyle=1;fillColor=none;strokeColor=default;" vertex="1" parent="1">
          <mxGeometry y="360" width="160" height="40" as="geometry" />
        </mxCell>
        <mxCell id="02hL3_lGpZv-LCDFnMkL-8" value="E" style="rounded=0;whiteSpace=wrap;html=1;fontFamily=Courier New;fontStyle=1;fillColor=none;fontSize=18;" vertex="1" parent="1">
          <mxGeometry x="240" y="360" width="40" height="40" as="geometry" />
        </mxCell>
        <mxCell id="02hL3_lGpZv-LCDFnMkL-9" value="P" style="rounded=0;whiteSpace=wrap;html=1;fontFamily=Courier New;fontStyle=1;fillColor=none;fontSize=18;" vertex="1" parent="1">
          <mxGeometry x="400" y="360" width="40" height="40" as="geometry" />
        </mxCell>
        <mxCell id="02hL3_lGpZv-LCDFnMkL-10" value="R" style="rounded=0;whiteSpace=wrap;html=1;fontFamily=Courier New;fontStyle=1;fillColor=none;fontSize=18;" vertex="1" parent="1">
          <mxGeometry x="520" y="360" width="40" height="40" as="geometry" />
        </mxCell>
        <mxCell id="02hL3_lGpZv-LCDFnMkL-11" value="" style="rounded=0;whiteSpace=wrap;html=1;fontFamily=Courier New;fontStyle=1;fillColor=#000000;glass=0;fillStyle=dashed;" vertex="1" parent="1">
          <mxGeometry x="440" y="360" width="80" height="40" as="geometry" />
        </mxCell>
        <mxCell id="02hL3_lGpZv-LCDFnMkL-13" value="W" style="rounded=0;whiteSpace=wrap;html=1;fontFamily=Courier New;fontStyle=1;fillColor=none;fontSize=18;" vertex="1" parent="1">
          <mxGeometry x="320" y="360" width="40" height="40" as="geometry" />
        </mxCell>
        <mxCell id="02hL3_lGpZv-LCDFnMkL-14" value="E" style="rounded=0;whiteSpace=wrap;html=1;fontFamily=Courier New;fontStyle=1;fillColor=none;fontSize=18;" vertex="1" parent="1">
          <mxGeometry x="680" y="360" width="40" height="40" as="geometry" />
        </mxCell>
        <mxCell id="02hL3_lGpZv-LCDFnMkL-15" value="W" style="rounded=0;whiteSpace=wrap;html=1;fontFamily=Courier New;fontStyle=1;fillColor=none;fontSize=18;" vertex="1" parent="1">
          <mxGeometry x="600" y="360" width="40" height="40" as="geometry" />
        </mxCell>
        <mxCell id="02hL3_lGpZv-LCDFnMkL-16" value="P" style="rounded=0;whiteSpace=wrap;html=1;fontFamily=Courier New;fontStyle=1;fillColor=none;fontSize=18;" vertex="1" parent="1">
          <mxGeometry x="760" y="360" width="40" height="40" as="geometry" />
        </mxCell>
        <mxCell id="02hL3_lGpZv-LCDFnMkL-17" value="" style="rounded=0;whiteSpace=wrap;html=1;fontFamily=Courier New;fontStyle=1;fillColor=#000000;glass=0;fillStyle=dashed;" vertex="1" parent="1">
          <mxGeometry x="800" y="360" width="80" height="40" as="geometry" />
        </mxCell>
        <mxCell id="02hL3_lGpZv-LCDFnMkL-18" value="R" style="rounded=0;whiteSpace=wrap;html=1;fontFamily=Courier New;fontStyle=1;fillColor=none;fontSize=18;" vertex="1" parent="1">
          <mxGeometry x="880" y="360" width="40" height="40" as="geometry" />
        </mxCell>
        <mxCell id="02hL3_lGpZv-LCDFnMkL-19" value="E" style="rounded=0;whiteSpace=wrap;html=1;fontFamily=Courier New;fontStyle=1;fillColor=none;fontSize=18;" vertex="1" parent="1">
          <mxGeometry x="960" y="360" width="40" height="40" as="geometry" />
        </mxCell>
        <mxCell id="02hL3_lGpZv-LCDFnMkL-20" value="W" style="rounded=0;whiteSpace=wrap;html=1;fontFamily=Courier New;fontStyle=1;fillColor=none;fontSize=18;" vertex="1" parent="1">
          <mxGeometry x="1040" y="360" width="40" height="40" as="geometry" />
        </mxCell>
        <mxCell id="02hL3_lGpZv-LCDFnMkL-21" value="P" style="rounded=0;whiteSpace=wrap;html=1;fontFamily=Courier New;fontStyle=1;fillColor=none;fontSize=18;" vertex="1" parent="1">
          <mxGeometry x="1120" y="360" width="40" height="40" as="geometry" />
        </mxCell>
        <mxCell id="02hL3_lGpZv-LCDFnMkL-22" value="" style="rounded=0;whiteSpace=wrap;html=1;fontFamily=Courier New;fontStyle=1;fillColor=#000000;glass=0;fillStyle=dashed;" vertex="1" parent="1">
          <mxGeometry x="1160" y="360" width="80" height="40" as="geometry" />
        </mxCell>
        <mxCell id="02hL3_lGpZv-LCDFnMkL-23" value="R" style="rounded=0;whiteSpace=wrap;html=1;fontFamily=Courier New;fontStyle=1;fillColor=none;fontSize=18;" vertex="1" parent="1">
          <mxGeometry x="1240" y="360" width="40" height="40" as="geometry" />
        </mxCell>
        <mxCell id="02hL3_lGpZv-LCDFnMkL-24" value="E" style="rounded=0;whiteSpace=wrap;html=1;fontFamily=Courier New;fontStyle=1;fillColor=none;fontSize=18;" vertex="1" parent="1">
          <mxGeometry x="1320" y="360" width="40" height="40" as="geometry" />
        </mxCell>
        <mxCell id="02hL3_lGpZv-LCDFnMkL-25" value="W" style="rounded=0;whiteSpace=wrap;html=1;fontFamily=Courier New;fontStyle=1;fillColor=none;fontSize=18;" vertex="1" parent="1">
          <mxGeometry x="1880" y="360" width="40" height="40" as="geometry" />
        </mxCell>
        <mxCell id="02hL3_lGpZv-LCDFnMkL-28" value="15" style="text;html=1;strokeColor=none;fillColor=none;align=center;verticalAlign=middle;whiteSpace=wrap;rounded=0;" vertex="1" parent="1">
          <mxGeometry x="240" y="320" width="40" height="40" as="geometry" />
        </mxCell>
        <mxCell id="02hL3_lGpZv-LCDFnMkL-29" value="30" style="text;html=1;strokeColor=none;fillColor=none;align=center;verticalAlign=middle;whiteSpace=wrap;rounded=0;" vertex="1" parent="1">
          <mxGeometry x="320" y="320" width="40" height="40" as="geometry" />
        </mxCell>
        <mxCell id="02hL3_lGpZv-LCDFnMkL-30" value="50" style="text;html=1;strokeColor=none;fillColor=none;align=center;verticalAlign=middle;whiteSpace=wrap;rounded=0;" vertex="1" parent="1">
          <mxGeometry x="400" y="320" width="40" height="40" as="geometry" />
        </mxCell>
        <mxCell id="02hL3_lGpZv-LCDFnMkL-31" value="80" style="text;html=1;strokeColor=none;fillColor=none;align=center;verticalAlign=middle;whiteSpace=wrap;rounded=0;" vertex="1" parent="1">
          <mxGeometry x="520" y="320" width="40" height="40" as="geometry" />
        </mxCell>
        <mxCell id="02hL3_lGpZv-LCDFnMkL-32" value="100" style="text;html=1;strokeColor=none;fillColor=none;align=center;verticalAlign=middle;whiteSpace=wrap;rounded=0;" vertex="1" parent="1">
          <mxGeometry x="600" y="320" width="40" height="40" as="geometry" />
        </mxCell>
        <mxCell id="02hL3_lGpZv-LCDFnMkL-33" value="105" style="text;html=1;strokeColor=none;fillColor=none;align=center;verticalAlign=middle;whiteSpace=wrap;rounded=0;" vertex="1" parent="1">
          <mxGeometry x="680" y="320" width="40" height="40" as="geometry" />
        </mxCell>
        <mxCell id="02hL3_lGpZv-LCDFnMkL-34" value="115" style="text;html=1;strokeColor=none;fillColor=none;align=center;verticalAlign=middle;whiteSpace=wrap;rounded=0;" vertex="1" parent="1">
          <mxGeometry x="760" y="320" width="40" height="40" as="geometry" />
        </mxCell>
        <mxCell id="02hL3_lGpZv-LCDFnMkL-35" value="125" style="text;html=1;strokeColor=none;fillColor=none;align=center;verticalAlign=middle;whiteSpace=wrap;rounded=0;" vertex="1" parent="1">
          <mxGeometry x="880" y="320" width="40" height="40" as="geometry" />
        </mxCell>
        <mxCell id="02hL3_lGpZv-LCDFnMkL-36" value="160" style="text;html=1;strokeColor=none;fillColor=none;align=center;verticalAlign=middle;whiteSpace=wrap;rounded=0;" vertex="1" parent="1">
          <mxGeometry x="960" y="320" width="40" height="40" as="geometry" />
        </mxCell>
        <mxCell id="02hL3_lGpZv-LCDFnMkL-37" value="170" style="text;html=1;strokeColor=none;fillColor=none;align=center;verticalAlign=middle;whiteSpace=wrap;rounded=0;" vertex="1" parent="1">
          <mxGeometry x="1040" y="320" width="40" height="40" as="geometry" />
        </mxCell>
        <mxCell id="02hL3_lGpZv-LCDFnMkL-38" value="175" style="text;html=1;strokeColor=none;fillColor=none;align=center;verticalAlign=middle;whiteSpace=wrap;rounded=0;" vertex="1" parent="1">
          <mxGeometry x="1120" y="320" width="40" height="40" as="geometry" />
        </mxCell>
        <mxCell id="02hL3_lGpZv-LCDFnMkL-39" value="180" style="text;html=1;strokeColor=none;fillColor=none;align=center;verticalAlign=middle;whiteSpace=wrap;rounded=0;" vertex="1" parent="1">
          <mxGeometry x="1240" y="320" width="40" height="40" as="geometry" />
        </mxCell>
        <mxCell id="02hL3_lGpZv-LCDFnMkL-40" value="185" style="text;html=1;strokeColor=none;fillColor=none;align=center;verticalAlign=middle;whiteSpace=wrap;rounded=0;" vertex="1" parent="1">
          <mxGeometry x="1320" y="320" width="40" height="40" as="geometry" />
        </mxCell>
        <mxCell id="02hL3_lGpZv-LCDFnMkL-41" value="Exp" style="text;html=1;strokeColor=none;fillColor=none;align=center;verticalAlign=middle;whiteSpace=wrap;rounded=0;" vertex="1" parent="1">
          <mxGeometry x="1880" y="320" width="40" height="40" as="geometry" />
        </mxCell>
        <mxCell id="02hL3_lGpZv-LCDFnMkL-42" value="3 Intervals" style="text;html=1;strokeColor=default;fillColor=none;align=center;verticalAlign=middle;whiteSpace=wrap;rounded=0;fontFamily=Courier New;dashed=1;" vertex="1" parent="1">
          <mxGeometry x="200" y="420" width="120" height="40" as="geometry" />
        </mxCell>
        <mxCell id="02hL3_lGpZv-LCDFnMkL-43" value="4 Intervals" style="text;html=1;strokeColor=default;fillColor=none;align=center;verticalAlign=middle;whiteSpace=wrap;rounded=0;fontFamily=Courier New;dashed=1;" vertex="1" parent="1">
          <mxGeometry x="640" y="420" width="120" height="40" as="geometry" />
        </mxCell>
        <mxCell id="02hL3_lGpZv-LCDFnMkL-44" value="5 Intervals" style="text;html=1;strokeColor=default;fillColor=none;align=center;verticalAlign=middle;whiteSpace=wrap;rounded=0;fontFamily=Courier New;dashed=1;" vertex="1" parent="1">
          <mxGeometry x="920" y="420" width="120" height="40" as="geometry" />
        </mxCell>
        <mxCell id="02hL3_lGpZv-LCDFnMkL-45" value="6 Intervals" style="text;html=1;strokeColor=default;fillColor=none;align=center;verticalAlign=middle;whiteSpace=wrap;rounded=0;fontFamily=Courier New;dashed=1;" vertex="1" parent="1">
          <mxGeometry x="1280" y="420" width="120" height="40" as="geometry" />
        </mxCell>
        <mxCell id="02hL3_lGpZv-LCDFnMkL-46" value="" style="rounded=0;whiteSpace=wrap;html=1;fillColor=#CCE5FF;" vertex="1" parent="1">
          <mxGeometry y="520" width="1920" height="40" as="geometry" />
        </mxCell>
        <mxCell id="02hL3_lGpZv-LCDFnMkL-47" value="" style="endArrow=none;html=1;rounded=0;entryX=0.5;entryY=1;entryDx=0;entryDy=0;exitX=0.5;exitY=0;exitDx=0;exitDy=0;dashed=1;" edge="1" parent="1" source="02hL3_lGpZv-LCDFnMkL-42" target="02hL3_lGpZv-LCDFnMkL-8">
          <mxGeometry width="50" height="50" relative="1" as="geometry">
            <mxPoint x="910" y="800" as="sourcePoint" />
            <mxPoint x="960" y="750" as="targetPoint" />
          </mxGeometry>
        </mxCell>
        <mxCell id="02hL3_lGpZv-LCDFnMkL-48" value="" style="endArrow=none;html=1;rounded=0;entryX=0.5;entryY=1;entryDx=0;entryDy=0;exitX=0.5;exitY=0;exitDx=0;exitDy=0;dashed=1;" edge="1" parent="1" source="02hL3_lGpZv-LCDFnMkL-43" target="02hL3_lGpZv-LCDFnMkL-14">
          <mxGeometry width="50" height="50" relative="1" as="geometry">
            <mxPoint x="270" y="450" as="sourcePoint" />
            <mxPoint x="270" y="410" as="targetPoint" />
          </mxGeometry>
        </mxCell>
        <mxCell id="02hL3_lGpZv-LCDFnMkL-49" value="" style="endArrow=none;html=1;rounded=0;entryX=0.5;entryY=1;entryDx=0;entryDy=0;exitX=0.5;exitY=0;exitDx=0;exitDy=0;dashed=1;" edge="1" parent="1" source="02hL3_lGpZv-LCDFnMkL-44" target="02hL3_lGpZv-LCDFnMkL-19">
          <mxGeometry width="50" height="50" relative="1" as="geometry">
            <mxPoint x="710" y="450" as="sourcePoint" />
            <mxPoint x="710" y="410" as="targetPoint" />
          </mxGeometry>
        </mxCell>
        <mxCell id="02hL3_lGpZv-LCDFnMkL-50" value="" style="endArrow=none;html=1;rounded=0;entryX=0.5;entryY=1;entryDx=0;entryDy=0;exitX=0.5;exitY=0;exitDx=0;exitDy=0;dashed=1;" edge="1" parent="1" source="02hL3_lGpZv-LCDFnMkL-45" target="02hL3_lGpZv-LCDFnMkL-24">
          <mxGeometry width="50" height="50" relative="1" as="geometry">
            <mxPoint x="990" y="450" as="sourcePoint" />
            <mxPoint x="990" y="410" as="targetPoint" />
          </mxGeometry>
        </mxCell>
        <mxCell id="02hL3_lGpZv-LCDFnMkL-51" value="LT Order B 0-&amp;gt;1&lt;br&gt;SR100, 2 Intervals" style="text;html=1;align=left;verticalAlign=middle;whiteSpace=wrap;rounded=0;fontFamily=Courier New;fontStyle=1;fillColor=none;strokeColor=default;" vertex="1" parent="1">
          <mxGeometry y="520" width="160" height="40" as="geometry" />
        </mxCell>
        <mxCell id="02hL3_lGpZv-LCDFnMkL-52" value="E" style="rounded=0;whiteSpace=wrap;html=1;fontFamily=Courier New;fontStyle=1;fillColor=none;fontSize=18;" vertex="1" parent="1">
          <mxGeometry x="680" y="520" width="40" height="40" as="geometry" />
        </mxCell>
        <mxCell id="02hL3_lGpZv-LCDFnMkL-53" value="105" style="text;html=1;strokeColor=none;fillColor=none;align=center;verticalAlign=middle;whiteSpace=wrap;rounded=0;" vertex="1" parent="1">
          <mxGeometry x="680" y="480" width="40" height="40" as="geometry" />
        </mxCell>
        <mxCell id="02hL3_lGpZv-LCDFnMkL-54" value="6 Intervals" style="text;html=1;strokeColor=default;fillColor=none;align=center;verticalAlign=middle;whiteSpace=wrap;rounded=0;fontFamily=Courier New;dashed=1;" vertex="1" parent="1">
          <mxGeometry x="640" y="580" width="120" height="40" as="geometry" />
        </mxCell>
        <mxCell id="02hL3_lGpZv-LCDFnMkL-55" value="" style="endArrow=none;html=1;rounded=0;entryX=0.5;entryY=1;entryDx=0;entryDy=0;exitX=0.5;exitY=0;exitDx=0;exitDy=0;dashed=1;" edge="1" parent="1" source="02hL3_lGpZv-LCDFnMkL-54" target="02hL3_lGpZv-LCDFnMkL-52">
          <mxGeometry width="50" height="50" relative="1" as="geometry">
            <mxPoint x="700" y="580" as="sourcePoint" />
            <mxPoint x="710" y="370" as="targetPoint" />
          </mxGeometry>
        </mxCell>
        <mxCell id="02hL3_lGpZv-LCDFnMkL-56" value="W" style="rounded=0;whiteSpace=wrap;html=1;fontFamily=Courier New;fontStyle=1;fillColor=none;fontSize=18;" vertex="1" parent="1">
          <mxGeometry x="1880" y="520" width="40" height="40" as="geometry" />
        </mxCell>
        <mxCell id="02hL3_lGpZv-LCDFnMkL-57" value="Exp" style="text;html=1;strokeColor=none;fillColor=none;align=center;verticalAlign=middle;whiteSpace=wrap;rounded=0;" vertex="1" parent="1">
          <mxGeometry x="1880" y="480" width="40" height="40" as="geometry" />
        </mxCell>
        <mxCell id="02hL3_lGpZv-LCDFnMkL-58" value="P" style="rounded=0;whiteSpace=wrap;html=1;fontFamily=Courier New;fontStyle=1;fillColor=none;fontSize=18;" vertex="1" parent="1">
          <mxGeometry x="1400" y="520" width="40" height="40" as="geometry" />
        </mxCell>
        <mxCell id="02hL3_lGpZv-LCDFnMkL-59" value="P" style="rounded=0;whiteSpace=wrap;html=1;fontFamily=Courier New;fontStyle=1;fillColor=none;fontSize=18;" vertex="1" parent="1">
          <mxGeometry x="480" y="520" width="40" height="40" as="geometry" />
        </mxCell>
        <mxCell id="02hL3_lGpZv-LCDFnMkL-60" value="R" style="rounded=0;whiteSpace=wrap;html=1;fontFamily=Courier New;fontStyle=1;fillColor=none;fontSize=18;" vertex="1" parent="1">
          <mxGeometry x="600" y="520" width="40" height="40" as="geometry" />
        </mxCell>
        <mxCell id="02hL3_lGpZv-LCDFnMkL-61" value="" style="rounded=0;whiteSpace=wrap;html=1;fontFamily=Courier New;fontStyle=1;fillColor=#000000;glass=0;fillStyle=dashed;" vertex="1" parent="1">
          <mxGeometry x="520" y="520" width="80" height="40" as="geometry" />
        </mxCell>
        <mxCell id="02hL3_lGpZv-LCDFnMkL-62" value="70" style="text;html=1;strokeColor=none;fillColor=none;align=center;verticalAlign=middle;whiteSpace=wrap;rounded=0;" vertex="1" parent="1">
          <mxGeometry x="480" y="480" width="40" height="40" as="geometry" />
        </mxCell>
        <mxCell id="02hL3_lGpZv-LCDFnMkL-63" value="100" style="text;html=1;strokeColor=none;fillColor=none;align=center;verticalAlign=middle;whiteSpace=wrap;rounded=0;" vertex="1" parent="1">
          <mxGeometry x="600" y="480" width="40" height="40" as="geometry" />
        </mxCell>
        <mxCell id="02hL3_lGpZv-LCDFnMkL-66" value="" style="rounded=0;whiteSpace=wrap;html=1;fillColor=#FFE6CC;" vertex="1" parent="1">
          <mxGeometry y="680" width="1880" height="40" as="geometry" />
        </mxCell>
        <mxCell id="02hL3_lGpZv-LCDFnMkL-67" value="LT Order C 1-&amp;gt;0&lt;br&gt;SR100, 2 Intervals" style="text;html=1;align=left;verticalAlign=middle;whiteSpace=wrap;rounded=0;fontFamily=Courier New;fontStyle=1;fillColor=none;strokeColor=default;" vertex="1" parent="1">
          <mxGeometry y="680" width="160" height="40" as="geometry" />
        </mxCell>
        <mxCell id="02hL3_lGpZv-LCDFnMkL-68" value="P" style="rounded=0;whiteSpace=wrap;html=1;fontFamily=Courier New;fontStyle=1;fillColor=none;fontSize=18;" vertex="1" parent="1">
          <mxGeometry x="280" y="680" width="40" height="40" as="geometry" />
        </mxCell>
        <mxCell id="02hL3_lGpZv-LCDFnMkL-69" value="20" style="text;html=1;strokeColor=none;fillColor=none;align=center;verticalAlign=middle;whiteSpace=wrap;rounded=0;" vertex="1" parent="1">
          <mxGeometry x="280" y="640" width="40" height="40" as="geometry" />
        </mxCell>
        <mxCell id="02hL3_lGpZv-LCDFnMkL-70" value="" style="rounded=0;whiteSpace=wrap;html=1;fontFamily=Courier New;fontStyle=1;fillColor=#000000;glass=0;fillStyle=dashed;" vertex="1" parent="1">
          <mxGeometry x="320" y="680" width="240" height="40" as="geometry" />
        </mxCell>
        <mxCell id="02hL3_lGpZv-LCDFnMkL-71" value="R" style="rounded=0;whiteSpace=wrap;html=1;fontFamily=Courier New;fontStyle=1;fillColor=none;fontSize=18;" vertex="1" parent="1">
          <mxGeometry x="560" y="680" width="40" height="40" as="geometry" />
        </mxCell>
        <mxCell id="02hL3_lGpZv-LCDFnMkL-72" value="90" style="text;html=1;strokeColor=none;fillColor=none;align=center;verticalAlign=middle;whiteSpace=wrap;rounded=0;" vertex="1" parent="1">
          <mxGeometry x="560" y="640" width="40" height="40" as="geometry" />
        </mxCell>
        <mxCell id="02hL3_lGpZv-LCDFnMkL-73" value="E" style="rounded=0;whiteSpace=wrap;html=1;fontFamily=Courier New;fontStyle=1;fillColor=none;fontSize=18;" vertex="1" parent="1">
          <mxGeometry x="680" y="680" width="40" height="40" as="geometry" />
        </mxCell>
        <mxCell id="02hL3_lGpZv-LCDFnMkL-74" value="105" style="text;html=1;strokeColor=none;fillColor=none;align=center;verticalAlign=middle;whiteSpace=wrap;rounded=0;" vertex="1" parent="1">
          <mxGeometry x="680" y="640" width="40" height="40" as="geometry" />
        </mxCell>
        <mxCell id="02hL3_lGpZv-LCDFnMkL-75" value="6 Intervals" style="text;html=1;strokeColor=default;fillColor=none;align=center;verticalAlign=middle;whiteSpace=wrap;rounded=0;fontFamily=Courier New;dashed=1;" vertex="1" parent="1">
          <mxGeometry x="640" y="740" width="120" height="40" as="geometry" />
        </mxCell>
        <mxCell id="02hL3_lGpZv-LCDFnMkL-76" value="" style="endArrow=none;html=1;rounded=0;entryX=0.5;entryY=1;entryDx=0;entryDy=0;exitX=0.5;exitY=0;exitDx=0;exitDy=0;dashed=1;" edge="1" parent="1" source="02hL3_lGpZv-LCDFnMkL-75" target="02hL3_lGpZv-LCDFnMkL-73">
          <mxGeometry width="50" height="50" relative="1" as="geometry">
            <mxPoint x="710" y="570" as="sourcePoint" />
            <mxPoint x="710" y="530" as="targetPoint" />
          </mxGeometry>
        </mxCell>
        <mxCell id="02hL3_lGpZv-LCDFnMkL-79" value="C" style="rounded=0;whiteSpace=wrap;html=1;fontFamily=Courier New;fontStyle=1;fillColor=none;fontSize=18;" vertex="1" parent="1">
          <mxGeometry x="1840" y="680" width="40" height="40" as="geometry" />
        </mxCell>
        <mxCell id="02hL3_lGpZv-LCDFnMkL-80" value="Exp-1" style="text;html=1;strokeColor=none;fillColor=none;align=center;verticalAlign=middle;whiteSpace=wrap;rounded=0;" vertex="1" parent="1">
          <mxGeometry x="1840" y="640" width="40" height="40" as="geometry" />
        </mxCell>
        <mxCell id="02hL3_lGpZv-LCDFnMkL-81" value="" style="rounded=0;whiteSpace=wrap;html=1;fillColor=#FFE6CC;" vertex="1" parent="1">
          <mxGeometry y="840" width="1440" height="40" as="geometry" />
        </mxCell>
        <mxCell id="02hL3_lGpZv-LCDFnMkL-82" value="LT Order D 1-&amp;gt;0&lt;br&gt;SR100, 2 Intervals" style="text;html=1;align=left;verticalAlign=middle;whiteSpace=wrap;rounded=0;fontFamily=Courier New;fontStyle=1;fillColor=none;strokeColor=default;" vertex="1" parent="1">
          <mxGeometry y="840" width="160" height="40" as="geometry" />
        </mxCell>
        <mxCell id="02hL3_lGpZv-LCDFnMkL-83" value="E" style="rounded=0;whiteSpace=wrap;html=1;fontFamily=Courier New;fontStyle=1;fillColor=none;fontSize=18;" vertex="1" parent="1">
          <mxGeometry x="360" y="840" width="40" height="40" as="geometry" />
        </mxCell>
        <mxCell id="02hL3_lGpZv-LCDFnMkL-84" value="40" style="text;html=1;strokeColor=none;fillColor=none;align=center;verticalAlign=middle;whiteSpace=wrap;rounded=0;" vertex="1" parent="1">
          <mxGeometry x="360" y="800" width="40" height="40" as="geometry" />
        </mxCell>
        <mxCell id="02hL3_lGpZv-LCDFnMkL-85" value="P" style="rounded=0;whiteSpace=wrap;html=1;fontFamily=Courier New;fontStyle=1;fillColor=none;fontSize=18;" vertex="1" parent="1">
          <mxGeometry x="440" y="840" width="40" height="40" as="geometry" />
        </mxCell>
        <mxCell id="02hL3_lGpZv-LCDFnMkL-86" value="60" style="text;html=1;strokeColor=none;fillColor=none;align=center;verticalAlign=middle;whiteSpace=wrap;rounded=0;" vertex="1" parent="1">
          <mxGeometry x="440" y="800" width="40" height="40" as="geometry" />
        </mxCell>
        <mxCell id="02hL3_lGpZv-LCDFnMkL-87" value="" style="rounded=0;whiteSpace=wrap;html=1;fontFamily=Courier New;fontStyle=1;fillColor=#000000;glass=0;fillStyle=dashed;" vertex="1" parent="1">
          <mxGeometry x="480" y="840" width="240" height="40" as="geometry" />
        </mxCell>
        <mxCell id="02hL3_lGpZv-LCDFnMkL-88" value="R" style="rounded=0;whiteSpace=wrap;html=1;fontFamily=Courier New;fontStyle=1;fillColor=none;fontSize=18;" vertex="1" parent="1">
          <mxGeometry x="720" y="840" width="40" height="40" as="geometry" />
        </mxCell>
        <mxCell id="02hL3_lGpZv-LCDFnMkL-89" value="110" style="text;html=1;strokeColor=none;fillColor=none;align=center;verticalAlign=middle;whiteSpace=wrap;rounded=0;" vertex="1" parent="1">
          <mxGeometry x="720" y="800" width="40" height="40" as="geometry" />
        </mxCell>
        <mxCell id="02hL3_lGpZv-LCDFnMkL-90" value="E" style="rounded=0;whiteSpace=wrap;html=1;fontFamily=Courier New;fontStyle=1;fillColor=none;fontSize=18;" vertex="1" parent="1">
          <mxGeometry x="920" y="840" width="40" height="40" as="geometry" />
        </mxCell>
        <mxCell id="02hL3_lGpZv-LCDFnMkL-91" value="140" style="text;html=1;strokeColor=none;fillColor=none;align=center;verticalAlign=middle;whiteSpace=wrap;rounded=0;" vertex="1" parent="1">
          <mxGeometry x="920" y="800" width="40" height="40" as="geometry" />
        </mxCell>
        <mxCell id="02hL3_lGpZv-LCDFnMkL-92" value="C" style="rounded=0;whiteSpace=wrap;html=1;fontFamily=Courier New;fontStyle=1;fillColor=none;fontSize=18;" vertex="1" parent="1">
          <mxGeometry x="1400" y="840" width="40" height="40" as="geometry" />
        </mxCell>
        <mxCell id="02hL3_lGpZv-LCDFnMkL-93" value="200" style="text;html=1;strokeColor=none;fillColor=none;align=center;verticalAlign=middle;whiteSpace=wrap;rounded=0;" vertex="1" parent="1">
          <mxGeometry x="1400" y="480" width="40" height="40" as="geometry" />
        </mxCell>
        <mxCell id="02hL3_lGpZv-LCDFnMkL-94" value="" style="rounded=0;whiteSpace=wrap;html=1;fontFamily=Courier New;fontStyle=1;fillColor=#000000;glass=0;fillStyle=dashed;" vertex="1" parent="1">
          <mxGeometry x="1440" y="520" width="440" height="40" as="geometry" />
        </mxCell>
        <mxCell id="02hL3_lGpZv-LCDFnMkL-95" value="200" style="text;html=1;strokeColor=none;fillColor=none;align=center;verticalAlign=middle;whiteSpace=wrap;rounded=0;" vertex="1" parent="1">
          <mxGeometry x="1400" y="800" width="40" height="40" as="geometry" />
        </mxCell>
        <mxCell id="02hL3_lGpZv-LCDFnMkL-96" value="&lt;u&gt;NOTES:&lt;br&gt;&lt;/u&gt;&lt;br&gt;E: Extend&lt;br&gt;P: Pause&lt;br&gt;R: Resume&lt;br&gt;C: Cancel&lt;br&gt;W: Withdraw&lt;br&gt;&lt;br&gt;* Implement 2nd variation with order directions inverted" style="text;html=1;align=left;verticalAlign=top;whiteSpace=wrap;rounded=0;fontFamily=Courier New;fontSize=18;fontStyle=1;fillColor=default;strokeColor=default;spacing=6;" vertex="1" parent="1">
          <mxGeometry x="40" y="60" width="640" height="220" as="geometry" />
        </mxCell>
        <mxCell id="02hL3_lGpZv-LCDFnMkL-97" value="4 Intervals" style="text;html=1;strokeColor=default;fillColor=none;align=center;verticalAlign=middle;whiteSpace=wrap;rounded=0;fontFamily=Courier New;dashed=1;" vertex="1" parent="1">
          <mxGeometry x="320" y="900" width="120" height="40" as="geometry" />
        </mxCell>
        <mxCell id="02hL3_lGpZv-LCDFnMkL-98" value="6 Intervals" style="text;html=1;strokeColor=default;fillColor=none;align=center;verticalAlign=middle;whiteSpace=wrap;rounded=0;fontFamily=Courier New;dashed=1;" vertex="1" parent="1">
          <mxGeometry x="880" y="900" width="120" height="40" as="geometry" />
        </mxCell>
        <mxCell id="02hL3_lGpZv-LCDFnMkL-99" value="" style="endArrow=none;html=1;rounded=0;entryX=0.5;entryY=1;entryDx=0;entryDy=0;exitX=0.5;exitY=0;exitDx=0;exitDy=0;dashed=1;" edge="1" parent="1" source="02hL3_lGpZv-LCDFnMkL-97" target="02hL3_lGpZv-LCDFnMkL-83">
          <mxGeometry width="50" height="50" relative="1" as="geometry">
            <mxPoint x="710" y="730" as="sourcePoint" />
            <mxPoint x="710" y="690" as="targetPoint" />
          </mxGeometry>
        </mxCell>
        <mxCell id="02hL3_lGpZv-LCDFnMkL-100" value="" style="endArrow=none;html=1;rounded=0;entryX=0.5;entryY=1;entryDx=0;entryDy=0;exitX=0.5;exitY=0;exitDx=0;exitDy=0;dashed=1;" edge="1" parent="1" source="02hL3_lGpZv-LCDFnMkL-98" target="02hL3_lGpZv-LCDFnMkL-90">
          <mxGeometry width="50" height="50" relative="1" as="geometry">
            <mxPoint x="390" y="930" as="sourcePoint" />
            <mxPoint x="390" y="890" as="targetPoint" />
          </mxGeometry>
        </mxCell>
        <mxCell id="02hL3_lGpZv-LCDFnMkL-101" value="P" style="rounded=0;whiteSpace=wrap;html=1;fontFamily=Courier New;fontStyle=1;fillColor=none;fontSize=18;" vertex="1" parent="1">
          <mxGeometry x="1360" y="680" width="40" height="40" as="geometry" />
        </mxCell>
        <mxCell id="02hL3_lGpZv-LCDFnMkL-102" value="190" style="text;html=1;strokeColor=none;fillColor=none;align=center;verticalAlign=middle;whiteSpace=wrap;rounded=0;" vertex="1" parent="1">
          <mxGeometry x="1360" y="640" width="40" height="40" as="geometry" />
        </mxCell>
        <mxCell id="02hL3_lGpZv-LCDFnMkL-103" value="" style="rounded=0;whiteSpace=wrap;html=1;fontFamily=Courier New;fontStyle=1;fillColor=#000000;glass=0;fillStyle=dashed;" vertex="1" parent="1">
          <mxGeometry x="1400" y="680" width="440" height="40" as="geometry" />
        </mxCell>
        <mxCell id="02hL3_lGpZv-LCDFnMkL-104" value="" style="rounded=0;whiteSpace=wrap;html=1;fillColor=#CCE5FF;" vertex="1" parent="1">
          <mxGeometry y="1300" width="1920" height="40" as="geometry" />
        </mxCell>
        <mxCell id="02hL3_lGpZv-LCDFnMkL-105" value="LT Order A 0-&amp;gt;1&lt;br&gt;SR100, 2 Intervals" style="text;html=1;align=left;verticalAlign=middle;whiteSpace=wrap;rounded=0;fontFamily=Courier New;fontStyle=1;fillColor=none;strokeColor=default;" vertex="1" parent="1">
          <mxGeometry y="1300" width="160" height="40" as="geometry" />
        </mxCell>
        <mxCell id="02hL3_lGpZv-LCDFnMkL-106" value="&lt;b&gt;&lt;font style=&quot;font-size: 24px;&quot;&gt;LT Order Pause / Resume / Extend Variation Basic Test 2&amp;nbsp;&lt;/font&gt;&lt;/b&gt;&lt;b style=&quot;border-color: var(--border-color);&quot;&gt;&lt;font style=&quot;border-color: var(--border-color); font-size: 24px;&quot;&gt;[PRE-AT-002]&lt;/font&gt;&lt;/b&gt;" style="rounded=0;whiteSpace=wrap;html=1;fillColor=#f5f5f5;fontColor=#333333;strokeColor=#666666;align=left;" vertex="1" parent="1">
          <mxGeometry y="1200" width="1920" height="40" as="geometry" />
        </mxCell>
        <mxCell id="02hL3_lGpZv-LCDFnMkL-107" value="E" style="rounded=0;whiteSpace=wrap;html=1;fontFamily=Courier New;fontStyle=1;fillColor=none;fontSize=18;" vertex="1" parent="1">
          <mxGeometry x="240" y="1300" width="40" height="40" as="geometry" />
        </mxCell>
        <mxCell id="02hL3_lGpZv-LCDFnMkL-108" value="W" style="rounded=0;whiteSpace=wrap;html=1;fontFamily=Courier New;fontStyle=1;fillColor=none;fontSize=18;" vertex="1" parent="1">
          <mxGeometry x="320" y="1300" width="40" height="40" as="geometry" />
        </mxCell>
        <mxCell id="02hL3_lGpZv-LCDFnMkL-109" value="P" style="rounded=0;whiteSpace=wrap;html=1;fontFamily=Courier New;fontStyle=1;fillColor=none;fontSize=18;" vertex="1" parent="1">
          <mxGeometry x="400" y="1300" width="40" height="40" as="geometry" />
        </mxCell>
        <mxCell id="02hL3_lGpZv-LCDFnMkL-110" value="" style="rounded=0;whiteSpace=wrap;html=1;fontFamily=Courier New;fontStyle=1;fillColor=#000000;glass=0;fillStyle=dashed;" vertex="1" parent="1">
          <mxGeometry x="440" y="1300" width="40" height="40" as="geometry" />
        </mxCell>
        <mxCell id="02hL3_lGpZv-LCDFnMkL-111" value="R" style="rounded=0;whiteSpace=wrap;html=1;fontFamily=Courier New;fontStyle=1;fillColor=none;fontSize=18;" vertex="1" parent="1">
          <mxGeometry x="480" y="1300" width="40" height="40" as="geometry" />
        </mxCell>
        <mxCell id="02hL3_lGpZv-LCDFnMkL-112" value="E" style="rounded=0;whiteSpace=wrap;html=1;fontFamily=Courier New;fontStyle=1;fillColor=none;fontSize=18;" vertex="1" parent="1">
          <mxGeometry x="560" y="1300" width="40" height="40" as="geometry" />
        </mxCell>
        <mxCell id="02hL3_lGpZv-LCDFnMkL-113" value="W" style="rounded=0;whiteSpace=wrap;html=1;fontFamily=Courier New;fontStyle=1;fillColor=none;fontSize=18;" vertex="1" parent="1">
          <mxGeometry x="640" y="1300" width="40" height="40" as="geometry" />
        </mxCell>
        <mxCell id="02hL3_lGpZv-LCDFnMkL-114" value="P" style="rounded=0;whiteSpace=wrap;html=1;fontFamily=Courier New;fontStyle=1;fillColor=none;fontSize=18;" vertex="1" parent="1">
          <mxGeometry x="720" y="1300" width="40" height="40" as="geometry" />
        </mxCell>
        <mxCell id="02hL3_lGpZv-LCDFnMkL-115" value="" style="rounded=0;whiteSpace=wrap;html=1;fontFamily=Courier New;fontStyle=1;fillColor=#000000;glass=0;fillStyle=dashed;" vertex="1" parent="1">
          <mxGeometry x="760" y="1300" width="40" height="40" as="geometry" />
        </mxCell>
        <mxCell id="02hL3_lGpZv-LCDFnMkL-116" value="R" style="rounded=0;whiteSpace=wrap;html=1;fontFamily=Courier New;fontStyle=1;fillColor=none;fontSize=18;" vertex="1" parent="1">
          <mxGeometry x="800" y="1300" width="40" height="40" as="geometry" />
        </mxCell>
        <mxCell id="02hL3_lGpZv-LCDFnMkL-117" value="E" style="rounded=0;whiteSpace=wrap;html=1;fontFamily=Courier New;fontStyle=1;fillColor=none;fontSize=18;" vertex="1" parent="1">
          <mxGeometry x="960" y="1300" width="40" height="40" as="geometry" />
        </mxCell>
        <mxCell id="02hL3_lGpZv-LCDFnMkL-118" value="W" style="rounded=0;whiteSpace=wrap;html=1;fontFamily=Courier New;fontStyle=1;fillColor=none;fontSize=18;" vertex="1" parent="1">
          <mxGeometry x="880" y="1300" width="40" height="40" as="geometry" />
        </mxCell>
        <mxCell id="02hL3_lGpZv-LCDFnMkL-119" value="W" style="rounded=0;whiteSpace=wrap;html=1;fontFamily=Courier New;fontStyle=1;fillColor=none;fontSize=18;" vertex="1" parent="1">
          <mxGeometry x="1880" y="1300" width="40" height="40" as="geometry" />
        </mxCell>
        <mxCell id="02hL3_lGpZv-LCDFnMkL-120" value="" style="rounded=0;whiteSpace=wrap;html=1;fillColor=#CCE5FF;" vertex="1" parent="1">
          <mxGeometry y="1440" width="1920" height="40" as="geometry" />
        </mxCell>
        <mxCell id="02hL3_lGpZv-LCDFnMkL-121" value="LT Order B 0-&amp;gt;1&lt;br&gt;SR100, 2 Intervals" style="text;html=1;align=left;verticalAlign=middle;whiteSpace=wrap;rounded=0;fontFamily=Courier New;fontStyle=1;fillColor=none;strokeColor=default;" vertex="1" parent="1">
          <mxGeometry y="1440" width="160" height="40" as="geometry" />
        </mxCell>
        <mxCell id="02hL3_lGpZv-LCDFnMkL-122" value="E" style="rounded=0;whiteSpace=wrap;html=1;fontFamily=Courier New;fontStyle=1;fillColor=none;fontSize=18;" vertex="1" parent="1">
          <mxGeometry x="240" y="1440" width="40" height="40" as="geometry" />
        </mxCell>
        <mxCell id="02hL3_lGpZv-LCDFnMkL-123" value="W" style="rounded=0;whiteSpace=wrap;html=1;fontFamily=Courier New;fontStyle=1;fillColor=none;fontSize=18;" vertex="1" parent="1">
          <mxGeometry x="320" y="1440" width="40" height="40" as="geometry" />
        </mxCell>
        <mxCell id="02hL3_lGpZv-LCDFnMkL-124" value="P" style="rounded=0;whiteSpace=wrap;html=1;fontFamily=Courier New;fontStyle=1;fillColor=none;fontSize=18;" vertex="1" parent="1">
          <mxGeometry x="400" y="1440" width="40" height="40" as="geometry" />
        </mxCell>
        <mxCell id="02hL3_lGpZv-LCDFnMkL-125" value="" style="rounded=0;whiteSpace=wrap;html=1;fontFamily=Courier New;fontStyle=1;fillColor=#000000;glass=0;fillStyle=dashed;" vertex="1" parent="1">
          <mxGeometry x="440" y="1440" width="40" height="40" as="geometry" />
        </mxCell>
        <mxCell id="02hL3_lGpZv-LCDFnMkL-126" value="R" style="rounded=0;whiteSpace=wrap;html=1;fontFamily=Courier New;fontStyle=1;fillColor=none;fontSize=18;" vertex="1" parent="1">
          <mxGeometry x="480" y="1440" width="40" height="40" as="geometry" />
        </mxCell>
        <mxCell id="02hL3_lGpZv-LCDFnMkL-127" value="E" style="rounded=0;whiteSpace=wrap;html=1;fontFamily=Courier New;fontStyle=1;fillColor=none;fontSize=18;" vertex="1" parent="1">
          <mxGeometry x="560" y="1440" width="40" height="40" as="geometry" />
        </mxCell>
        <mxCell id="02hL3_lGpZv-LCDFnMkL-128" value="W" style="rounded=0;whiteSpace=wrap;html=1;fontFamily=Courier New;fontStyle=1;fillColor=none;fontSize=18;" vertex="1" parent="1">
          <mxGeometry x="640" y="1440" width="40" height="40" as="geometry" />
        </mxCell>
        <mxCell id="02hL3_lGpZv-LCDFnMkL-129" value="P" style="rounded=0;whiteSpace=wrap;html=1;fontFamily=Courier New;fontStyle=1;fillColor=none;fontSize=18;" vertex="1" parent="1">
          <mxGeometry x="720" y="1440" width="40" height="40" as="geometry" />
        </mxCell>
        <mxCell id="02hL3_lGpZv-LCDFnMkL-130" value="" style="rounded=0;whiteSpace=wrap;html=1;fontFamily=Courier New;fontStyle=1;fillColor=#000000;glass=0;fillStyle=dashed;" vertex="1" parent="1">
          <mxGeometry x="760" y="1440" width="40" height="40" as="geometry" />
        </mxCell>
        <mxCell id="02hL3_lGpZv-LCDFnMkL-131" value="R" style="rounded=0;whiteSpace=wrap;html=1;fontFamily=Courier New;fontStyle=1;fillColor=none;fontSize=18;" vertex="1" parent="1">
          <mxGeometry x="800" y="1440" width="40" height="40" as="geometry" />
        </mxCell>
        <mxCell id="02hL3_lGpZv-LCDFnMkL-132" value="E" style="rounded=0;whiteSpace=wrap;html=1;fontFamily=Courier New;fontStyle=1;fillColor=none;fontSize=18;" vertex="1" parent="1">
          <mxGeometry x="960" y="1440" width="40" height="40" as="geometry" />
        </mxCell>
        <mxCell id="02hL3_lGpZv-LCDFnMkL-133" value="W" style="rounded=0;whiteSpace=wrap;html=1;fontFamily=Courier New;fontStyle=1;fillColor=none;fontSize=18;" vertex="1" parent="1">
          <mxGeometry x="880" y="1440" width="40" height="40" as="geometry" />
        </mxCell>
        <mxCell id="02hL3_lGpZv-LCDFnMkL-134" value="W" style="rounded=0;whiteSpace=wrap;html=1;fontFamily=Courier New;fontStyle=1;fillColor=none;fontSize=18;" vertex="1" parent="1">
          <mxGeometry x="1880" y="1440" width="40" height="40" as="geometry" />
        </mxCell>
        <mxCell id="02hL3_lGpZv-LCDFnMkL-135" value="P" style="rounded=0;whiteSpace=wrap;html=1;fontFamily=Courier New;fontStyle=1;fillColor=none;fontSize=18;" vertex="1" parent="1">
          <mxGeometry x="1040" y="1440" width="40" height="40" as="geometry" />
        </mxCell>
        <mxCell id="02hL3_lGpZv-LCDFnMkL-136" value="" style="rounded=0;whiteSpace=wrap;html=1;fontFamily=Courier New;fontStyle=1;fillColor=#000000;glass=0;fillStyle=dashed;" vertex="1" parent="1">
          <mxGeometry x="1080" y="1440" width="800" height="40" as="geometry" />
        </mxCell>
        <mxCell id="02hL3_lGpZv-LCDFnMkL-137" value="" style="rounded=0;whiteSpace=wrap;html=1;fillColor=#CCE5FF;" vertex="1" parent="1">
          <mxGeometry y="1580" width="1560" height="40" as="geometry" />
        </mxCell>
        <mxCell id="02hL3_lGpZv-LCDFnMkL-138" value="LT Order C 0-&amp;gt;1&lt;br&gt;SR100, 2 Intervals" style="text;html=1;align=left;verticalAlign=middle;whiteSpace=wrap;rounded=0;fontFamily=Courier New;fontStyle=1;fillColor=none;strokeColor=default;" vertex="1" parent="1">
          <mxGeometry y="1580" width="160" height="40" as="geometry" />
        </mxCell>
        <mxCell id="02hL3_lGpZv-LCDFnMkL-139" value="E" style="rounded=0;whiteSpace=wrap;html=1;fontFamily=Courier New;fontStyle=1;fillColor=none;fontSize=18;" vertex="1" parent="1">
          <mxGeometry x="240" y="1580" width="40" height="40" as="geometry" />
        </mxCell>
        <mxCell id="02hL3_lGpZv-LCDFnMkL-140" value="W" style="rounded=0;whiteSpace=wrap;html=1;fontFamily=Courier New;fontStyle=1;fillColor=none;fontSize=18;" vertex="1" parent="1">
          <mxGeometry x="320" y="1580" width="40" height="40" as="geometry" />
        </mxCell>
        <mxCell id="02hL3_lGpZv-LCDFnMkL-141" value="P" style="rounded=0;whiteSpace=wrap;html=1;fontFamily=Courier New;fontStyle=1;fillColor=none;fontSize=18;" vertex="1" parent="1">
          <mxGeometry x="400" y="1580" width="40" height="40" as="geometry" />
        </mxCell>
        <mxCell id="02hL3_lGpZv-LCDFnMkL-142" value="" style="rounded=0;whiteSpace=wrap;html=1;fontFamily=Courier New;fontStyle=1;fillColor=#000000;glass=0;fillStyle=dashed;" vertex="1" parent="1">
          <mxGeometry x="440" y="1580" width="40" height="40" as="geometry" />
        </mxCell>
        <mxCell id="02hL3_lGpZv-LCDFnMkL-143" value="R" style="rounded=0;whiteSpace=wrap;html=1;fontFamily=Courier New;fontStyle=1;fillColor=none;fontSize=18;" vertex="1" parent="1">
          <mxGeometry x="480" y="1580" width="40" height="40" as="geometry" />
        </mxCell>
        <mxCell id="02hL3_lGpZv-LCDFnMkL-144" value="E" style="rounded=0;whiteSpace=wrap;html=1;fontFamily=Courier New;fontStyle=1;fillColor=none;fontSize=18;" vertex="1" parent="1">
          <mxGeometry x="560" y="1580" width="40" height="40" as="geometry" />
        </mxCell>
        <mxCell id="02hL3_lGpZv-LCDFnMkL-145" value="W" style="rounded=0;whiteSpace=wrap;html=1;fontFamily=Courier New;fontStyle=1;fillColor=none;fontSize=18;" vertex="1" parent="1">
          <mxGeometry x="640" y="1580" width="40" height="40" as="geometry" />
        </mxCell>
        <mxCell id="02hL3_lGpZv-LCDFnMkL-146" value="P" style="rounded=0;whiteSpace=wrap;html=1;fontFamily=Courier New;fontStyle=1;fillColor=none;fontSize=18;" vertex="1" parent="1">
          <mxGeometry x="720" y="1580" width="40" height="40" as="geometry" />
        </mxCell>
        <mxCell id="02hL3_lGpZv-LCDFnMkL-147" value="" style="rounded=0;whiteSpace=wrap;html=1;fontFamily=Courier New;fontStyle=1;fillColor=#000000;glass=0;fillStyle=dashed;" vertex="1" parent="1">
          <mxGeometry x="760" y="1580" width="40" height="40" as="geometry" />
        </mxCell>
        <mxCell id="02hL3_lGpZv-LCDFnMkL-148" value="R" style="rounded=0;whiteSpace=wrap;html=1;fontFamily=Courier New;fontStyle=1;fillColor=none;fontSize=18;" vertex="1" parent="1">
          <mxGeometry x="800" y="1580" width="40" height="40" as="geometry" />
        </mxCell>
        <mxCell id="02hL3_lGpZv-LCDFnMkL-149" value="E" style="rounded=0;whiteSpace=wrap;html=1;fontFamily=Courier New;fontStyle=1;fillColor=none;fontSize=18;" vertex="1" parent="1">
          <mxGeometry x="960" y="1580" width="40" height="40" as="geometry" />
        </mxCell>
        <mxCell id="02hL3_lGpZv-LCDFnMkL-150" value="W" style="rounded=0;whiteSpace=wrap;html=1;fontFamily=Courier New;fontStyle=1;fillColor=none;fontSize=18;" vertex="1" parent="1">
          <mxGeometry x="880" y="1580" width="40" height="40" as="geometry" />
        </mxCell>
        <mxCell id="02hL3_lGpZv-LCDFnMkL-151" value="C" style="rounded=0;whiteSpace=wrap;html=1;fontFamily=Courier New;fontStyle=1;fillColor=none;fontSize=18;" vertex="1" parent="1">
          <mxGeometry x="1520" y="1580" width="40" height="40" as="geometry" />
        </mxCell>
        <mxCell id="02hL3_lGpZv-LCDFnMkL-154" value="" style="rounded=0;whiteSpace=wrap;html=1;fillColor=#CCE5FF;" vertex="1" parent="1">
          <mxGeometry y="1720" width="1560" height="40" as="geometry" />
        </mxCell>
        <mxCell id="02hL3_lGpZv-LCDFnMkL-155" value="LT Order D 0-&amp;gt;1&lt;br&gt;SR100, 2 Intervals" style="text;html=1;align=left;verticalAlign=middle;whiteSpace=wrap;rounded=0;fontFamily=Courier New;fontStyle=1;fillColor=none;strokeColor=default;" vertex="1" parent="1">
          <mxGeometry y="1720" width="160" height="40" as="geometry" />
        </mxCell>
        <mxCell id="02hL3_lGpZv-LCDFnMkL-156" value="E" style="rounded=0;whiteSpace=wrap;html=1;fontFamily=Courier New;fontStyle=1;fillColor=none;fontSize=18;" vertex="1" parent="1">
          <mxGeometry x="240" y="1720" width="40" height="40" as="geometry" />
        </mxCell>
        <mxCell id="02hL3_lGpZv-LCDFnMkL-157" value="W" style="rounded=0;whiteSpace=wrap;html=1;fontFamily=Courier New;fontStyle=1;fillColor=none;fontSize=18;" vertex="1" parent="1">
          <mxGeometry x="320" y="1720" width="40" height="40" as="geometry" />
        </mxCell>
        <mxCell id="02hL3_lGpZv-LCDFnMkL-158" value="P" style="rounded=0;whiteSpace=wrap;html=1;fontFamily=Courier New;fontStyle=1;fillColor=none;fontSize=18;" vertex="1" parent="1">
          <mxGeometry x="400" y="1720" width="40" height="40" as="geometry" />
        </mxCell>
        <mxCell id="02hL3_lGpZv-LCDFnMkL-159" value="" style="rounded=0;whiteSpace=wrap;html=1;fontFamily=Courier New;fontStyle=1;fillColor=#000000;glass=0;fillStyle=dashed;" vertex="1" parent="1">
          <mxGeometry x="440" y="1720" width="40" height="40" as="geometry" />
        </mxCell>
        <mxCell id="02hL3_lGpZv-LCDFnMkL-160" value="R" style="rounded=0;whiteSpace=wrap;html=1;fontFamily=Courier New;fontStyle=1;fillColor=none;fontSize=18;" vertex="1" parent="1">
          <mxGeometry x="480" y="1720" width="40" height="40" as="geometry" />
        </mxCell>
        <mxCell id="02hL3_lGpZv-LCDFnMkL-161" value="E" style="rounded=0;whiteSpace=wrap;html=1;fontFamily=Courier New;fontStyle=1;fillColor=none;fontSize=18;" vertex="1" parent="1">
          <mxGeometry x="560" y="1720" width="40" height="40" as="geometry" />
        </mxCell>
        <mxCell id="02hL3_lGpZv-LCDFnMkL-162" value="W" style="rounded=0;whiteSpace=wrap;html=1;fontFamily=Courier New;fontStyle=1;fillColor=none;fontSize=18;" vertex="1" parent="1">
          <mxGeometry x="640" y="1720" width="40" height="40" as="geometry" />
        </mxCell>
        <mxCell id="02hL3_lGpZv-LCDFnMkL-163" value="P" style="rounded=0;whiteSpace=wrap;html=1;fontFamily=Courier New;fontStyle=1;fillColor=none;fontSize=18;" vertex="1" parent="1">
          <mxGeometry x="720" y="1720" width="40" height="40" as="geometry" />
        </mxCell>
        <mxCell id="02hL3_lGpZv-LCDFnMkL-164" value="" style="rounded=0;whiteSpace=wrap;html=1;fontFamily=Courier New;fontStyle=1;fillColor=#000000;glass=0;fillStyle=dashed;" vertex="1" parent="1">
          <mxGeometry x="760" y="1720" width="40" height="40" as="geometry" />
        </mxCell>
        <mxCell id="02hL3_lGpZv-LCDFnMkL-165" value="R" style="rounded=0;whiteSpace=wrap;html=1;fontFamily=Courier New;fontStyle=1;fillColor=none;fontSize=18;" vertex="1" parent="1">
          <mxGeometry x="800" y="1720" width="40" height="40" as="geometry" />
        </mxCell>
        <mxCell id="02hL3_lGpZv-LCDFnMkL-166" value="E" style="rounded=0;whiteSpace=wrap;html=1;fontFamily=Courier New;fontStyle=1;fillColor=none;fontSize=18;" vertex="1" parent="1">
          <mxGeometry x="960" y="1720" width="40" height="40" as="geometry" />
        </mxCell>
        <mxCell id="02hL3_lGpZv-LCDFnMkL-167" value="W" style="rounded=0;whiteSpace=wrap;html=1;fontFamily=Courier New;fontStyle=1;fillColor=none;fontSize=18;" vertex="1" parent="1">
          <mxGeometry x="880" y="1720" width="40" height="40" as="geometry" />
        </mxCell>
        <mxCell id="02hL3_lGpZv-LCDFnMkL-168" value="C" style="rounded=0;whiteSpace=wrap;html=1;fontFamily=Courier New;fontStyle=1;fillColor=none;fontSize=18;" vertex="1" parent="1">
          <mxGeometry x="1520" y="1720" width="40" height="40" as="geometry" />
        </mxCell>
        <mxCell id="02hL3_lGpZv-LCDFnMkL-169" value="P" style="rounded=0;whiteSpace=wrap;html=1;fontFamily=Courier New;fontStyle=1;fillColor=none;fontSize=18;" vertex="1" parent="1">
          <mxGeometry x="1040" y="1720" width="40" height="40" as="geometry" />
        </mxCell>
        <mxCell id="02hL3_lGpZv-LCDFnMkL-170" value="" style="rounded=0;whiteSpace=wrap;html=1;fontFamily=Courier New;fontStyle=1;fillColor=#000000;glass=0;fillStyle=dashed;" vertex="1" parent="1">
          <mxGeometry x="1080" y="1720" width="440" height="40" as="geometry" />
        </mxCell>
        <mxCell id="02hL3_lGpZv-LCDFnMkL-172" value="20" style="text;html=1;strokeColor=none;fillColor=none;align=center;verticalAlign=middle;whiteSpace=wrap;rounded=0;" vertex="1" parent="1">
          <mxGeometry x="240" y="1260" width="40" height="40" as="geometry" />
        </mxCell>
        <mxCell id="02hL3_lGpZv-LCDFnMkL-173" value="20" style="text;html=1;strokeColor=none;fillColor=none;align=center;verticalAlign=middle;whiteSpace=wrap;rounded=0;" vertex="1" parent="1">
          <mxGeometry x="240" y="1400" width="40" height="40" as="geometry" />
        </mxCell>
        <mxCell id="02hL3_lGpZv-LCDFnMkL-174" value="20" style="text;html=1;strokeColor=none;fillColor=none;align=center;verticalAlign=middle;whiteSpace=wrap;rounded=0;" vertex="1" parent="1">
          <mxGeometry x="240" y="1540" width="40" height="40" as="geometry" />
        </mxCell>
        <mxCell id="02hL3_lGpZv-LCDFnMkL-175" value="20" style="text;html=1;strokeColor=none;fillColor=none;align=center;verticalAlign=middle;whiteSpace=wrap;rounded=0;" vertex="1" parent="1">
          <mxGeometry x="240" y="1680" width="40" height="40" as="geometry" />
        </mxCell>
        <mxCell id="02hL3_lGpZv-LCDFnMkL-176" value="40" style="text;html=1;strokeColor=none;fillColor=none;align=center;verticalAlign=middle;whiteSpace=wrap;rounded=0;" vertex="1" parent="1">
          <mxGeometry x="320" y="1260" width="40" height="40" as="geometry" />
        </mxCell>
        <mxCell id="02hL3_lGpZv-LCDFnMkL-177" value="40" style="text;html=1;strokeColor=none;fillColor=none;align=center;verticalAlign=middle;whiteSpace=wrap;rounded=0;" vertex="1" parent="1">
          <mxGeometry x="320" y="1400" width="40" height="40" as="geometry" />
        </mxCell>
        <mxCell id="02hL3_lGpZv-LCDFnMkL-178" value="40" style="text;html=1;strokeColor=none;fillColor=none;align=center;verticalAlign=middle;whiteSpace=wrap;rounded=0;" vertex="1" parent="1">
          <mxGeometry x="320" y="1540" width="40" height="40" as="geometry" />
        </mxCell>
        <mxCell id="02hL3_lGpZv-LCDFnMkL-179" value="40" style="text;html=1;strokeColor=none;fillColor=none;align=center;verticalAlign=middle;whiteSpace=wrap;rounded=0;" vertex="1" parent="1">
          <mxGeometry x="320" y="1680" width="40" height="40" as="geometry" />
        </mxCell>
        <mxCell id="02hL3_lGpZv-LCDFnMkL-180" value="60" style="text;html=1;strokeColor=none;fillColor=none;align=center;verticalAlign=middle;whiteSpace=wrap;rounded=0;" vertex="1" parent="1">
          <mxGeometry x="400" y="1260" width="40" height="40" as="geometry" />
        </mxCell>
        <mxCell id="02hL3_lGpZv-LCDFnMkL-181" value="60" style="text;html=1;strokeColor=none;fillColor=none;align=center;verticalAlign=middle;whiteSpace=wrap;rounded=0;" vertex="1" parent="1">
          <mxGeometry x="400" y="1400" width="40" height="40" as="geometry" />
        </mxCell>
        <mxCell id="02hL3_lGpZv-LCDFnMkL-182" value="60" style="text;html=1;strokeColor=none;fillColor=none;align=center;verticalAlign=middle;whiteSpace=wrap;rounded=0;" vertex="1" parent="1">
          <mxGeometry x="400" y="1540" width="40" height="40" as="geometry" />
        </mxCell>
        <mxCell id="02hL3_lGpZv-LCDFnMkL-183" value="60" style="text;html=1;strokeColor=none;fillColor=none;align=center;verticalAlign=middle;whiteSpace=wrap;rounded=0;" vertex="1" parent="1">
          <mxGeometry x="400" y="1680" width="40" height="40" as="geometry" />
        </mxCell>
        <mxCell id="02hL3_lGpZv-LCDFnMkL-184" value="80" style="text;html=1;strokeColor=none;fillColor=none;align=center;verticalAlign=middle;whiteSpace=wrap;rounded=0;" vertex="1" parent="1">
          <mxGeometry x="480" y="1260" width="40" height="40" as="geometry" />
        </mxCell>
        <mxCell id="02hL3_lGpZv-LCDFnMkL-185" value="80" style="text;html=1;strokeColor=none;fillColor=none;align=center;verticalAlign=middle;whiteSpace=wrap;rounded=0;" vertex="1" parent="1">
          <mxGeometry x="480" y="1400" width="40" height="40" as="geometry" />
        </mxCell>
        <mxCell id="02hL3_lGpZv-LCDFnMkL-186" value="80" style="text;html=1;strokeColor=none;fillColor=none;align=center;verticalAlign=middle;whiteSpace=wrap;rounded=0;" vertex="1" parent="1">
          <mxGeometry x="480" y="1540" width="40" height="40" as="geometry" />
        </mxCell>
        <mxCell id="02hL3_lGpZv-LCDFnMkL-187" value="80" style="text;html=1;strokeColor=none;fillColor=none;align=center;verticalAlign=middle;whiteSpace=wrap;rounded=0;" vertex="1" parent="1">
          <mxGeometry x="480" y="1680" width="40" height="40" as="geometry" />
        </mxCell>
        <mxCell id="02hL3_lGpZv-LCDFnMkL-188" value="100" style="text;html=1;strokeColor=none;fillColor=none;align=center;verticalAlign=middle;whiteSpace=wrap;rounded=0;" vertex="1" parent="1">
          <mxGeometry x="560" y="1260" width="40" height="40" as="geometry" />
        </mxCell>
        <mxCell id="02hL3_lGpZv-LCDFnMkL-189" value="100" style="text;html=1;strokeColor=none;fillColor=none;align=center;verticalAlign=middle;whiteSpace=wrap;rounded=0;" vertex="1" parent="1">
          <mxGeometry x="560" y="1400" width="40" height="40" as="geometry" />
        </mxCell>
        <mxCell id="02hL3_lGpZv-LCDFnMkL-190" value="100" style="text;html=1;strokeColor=none;fillColor=none;align=center;verticalAlign=middle;whiteSpace=wrap;rounded=0;" vertex="1" parent="1">
          <mxGeometry x="560" y="1540" width="40" height="40" as="geometry" />
        </mxCell>
        <mxCell id="02hL3_lGpZv-LCDFnMkL-191" value="100" style="text;html=1;strokeColor=none;fillColor=none;align=center;verticalAlign=middle;whiteSpace=wrap;rounded=0;" vertex="1" parent="1">
          <mxGeometry x="560" y="1680" width="40" height="40" as="geometry" />
        </mxCell>
        <mxCell id="02hL3_lGpZv-LCDFnMkL-192" value="120" style="text;html=1;strokeColor=none;fillColor=none;align=center;verticalAlign=middle;whiteSpace=wrap;rounded=0;" vertex="1" parent="1">
          <mxGeometry x="640" y="1260" width="40" height="40" as="geometry" />
        </mxCell>
        <mxCell id="02hL3_lGpZv-LCDFnMkL-193" value="120" style="text;html=1;strokeColor=none;fillColor=none;align=center;verticalAlign=middle;whiteSpace=wrap;rounded=0;" vertex="1" parent="1">
          <mxGeometry x="640" y="1400" width="40" height="40" as="geometry" />
        </mxCell>
        <mxCell id="02hL3_lGpZv-LCDFnMkL-194" value="120" style="text;html=1;strokeColor=none;fillColor=none;align=center;verticalAlign=middle;whiteSpace=wrap;rounded=0;" vertex="1" parent="1">
          <mxGeometry x="640" y="1540" width="40" height="40" as="geometry" />
        </mxCell>
        <mxCell id="02hL3_lGpZv-LCDFnMkL-195" value="120" style="text;html=1;strokeColor=none;fillColor=none;align=center;verticalAlign=middle;whiteSpace=wrap;rounded=0;" vertex="1" parent="1">
          <mxGeometry x="640" y="1680" width="40" height="40" as="geometry" />
        </mxCell>
        <mxCell id="02hL3_lGpZv-LCDFnMkL-196" value="140" style="text;html=1;strokeColor=none;fillColor=none;align=center;verticalAlign=middle;whiteSpace=wrap;rounded=0;" vertex="1" parent="1">
          <mxGeometry x="720" y="1260" width="40" height="40" as="geometry" />
        </mxCell>
        <mxCell id="02hL3_lGpZv-LCDFnMkL-197" value="140" style="text;html=1;strokeColor=none;fillColor=none;align=center;verticalAlign=middle;whiteSpace=wrap;rounded=0;" vertex="1" parent="1">
          <mxGeometry x="720" y="1400" width="40" height="40" as="geometry" />
        </mxCell>
        <mxCell id="02hL3_lGpZv-LCDFnMkL-198" value="140" style="text;html=1;strokeColor=none;fillColor=none;align=center;verticalAlign=middle;whiteSpace=wrap;rounded=0;" vertex="1" parent="1">
          <mxGeometry x="720" y="1540" width="40" height="40" as="geometry" />
        </mxCell>
        <mxCell id="02hL3_lGpZv-LCDFnMkL-199" value="140" style="text;html=1;strokeColor=none;fillColor=none;align=center;verticalAlign=middle;whiteSpace=wrap;rounded=0;" vertex="1" parent="1">
          <mxGeometry x="720" y="1680" width="40" height="40" as="geometry" />
        </mxCell>
        <mxCell id="02hL3_lGpZv-LCDFnMkL-200" value="160" style="text;html=1;strokeColor=none;fillColor=none;align=center;verticalAlign=middle;whiteSpace=wrap;rounded=0;" vertex="1" parent="1">
          <mxGeometry x="800" y="1260" width="40" height="40" as="geometry" />
        </mxCell>
        <mxCell id="02hL3_lGpZv-LCDFnMkL-201" value="160" style="text;html=1;strokeColor=none;fillColor=none;align=center;verticalAlign=middle;whiteSpace=wrap;rounded=0;" vertex="1" parent="1">
          <mxGeometry x="800" y="1400" width="40" height="40" as="geometry" />
        </mxCell>
        <mxCell id="02hL3_lGpZv-LCDFnMkL-202" value="160" style="text;html=1;strokeColor=none;fillColor=none;align=center;verticalAlign=middle;whiteSpace=wrap;rounded=0;" vertex="1" parent="1">
          <mxGeometry x="800" y="1540" width="40" height="40" as="geometry" />
        </mxCell>
        <mxCell id="02hL3_lGpZv-LCDFnMkL-203" value="160" style="text;html=1;strokeColor=none;fillColor=none;align=center;verticalAlign=middle;whiteSpace=wrap;rounded=0;" vertex="1" parent="1">
          <mxGeometry x="800" y="1680" width="40" height="40" as="geometry" />
        </mxCell>
        <mxCell id="02hL3_lGpZv-LCDFnMkL-204" value="180" style="text;html=1;strokeColor=none;fillColor=none;align=center;verticalAlign=middle;whiteSpace=wrap;rounded=0;" vertex="1" parent="1">
          <mxGeometry x="880" y="1260" width="40" height="40" as="geometry" />
        </mxCell>
        <mxCell id="02hL3_lGpZv-LCDFnMkL-205" value="180" style="text;html=1;strokeColor=none;fillColor=none;align=center;verticalAlign=middle;whiteSpace=wrap;rounded=0;" vertex="1" parent="1">
          <mxGeometry x="880" y="1400" width="40" height="40" as="geometry" />
        </mxCell>
        <mxCell id="02hL3_lGpZv-LCDFnMkL-206" value="180" style="text;html=1;strokeColor=none;fillColor=none;align=center;verticalAlign=middle;whiteSpace=wrap;rounded=0;" vertex="1" parent="1">
          <mxGeometry x="880" y="1540" width="40" height="40" as="geometry" />
        </mxCell>
        <mxCell id="02hL3_lGpZv-LCDFnMkL-207" value="180" style="text;html=1;strokeColor=none;fillColor=none;align=center;verticalAlign=middle;whiteSpace=wrap;rounded=0;" vertex="1" parent="1">
          <mxGeometry x="880" y="1680" width="40" height="40" as="geometry" />
        </mxCell>
        <mxCell id="02hL3_lGpZv-LCDFnMkL-208" value="200" style="text;html=1;strokeColor=none;fillColor=none;align=center;verticalAlign=middle;whiteSpace=wrap;rounded=0;" vertex="1" parent="1">
          <mxGeometry x="960" y="1260" width="40" height="40" as="geometry" />
        </mxCell>
        <mxCell id="02hL3_lGpZv-LCDFnMkL-209" value="200" style="text;html=1;strokeColor=none;fillColor=none;align=center;verticalAlign=middle;whiteSpace=wrap;rounded=0;" vertex="1" parent="1">
          <mxGeometry x="960" y="1400" width="40" height="40" as="geometry" />
        </mxCell>
        <mxCell id="02hL3_lGpZv-LCDFnMkL-210" value="200" style="text;html=1;strokeColor=none;fillColor=none;align=center;verticalAlign=middle;whiteSpace=wrap;rounded=0;" vertex="1" parent="1">
          <mxGeometry x="960" y="1540" width="40" height="40" as="geometry" />
        </mxCell>
        <mxCell id="02hL3_lGpZv-LCDFnMkL-211" value="200" style="text;html=1;strokeColor=none;fillColor=none;align=center;verticalAlign=middle;whiteSpace=wrap;rounded=0;" vertex="1" parent="1">
          <mxGeometry x="960" y="1680" width="40" height="40" as="geometry" />
        </mxCell>
        <mxCell id="02hL3_lGpZv-LCDFnMkL-212" value="220" style="text;html=1;strokeColor=none;fillColor=none;align=center;verticalAlign=middle;whiteSpace=wrap;rounded=0;" vertex="1" parent="1">
          <mxGeometry x="1040" y="1400" width="40" height="40" as="geometry" />
        </mxCell>
        <mxCell id="02hL3_lGpZv-LCDFnMkL-213" value="220" style="text;html=1;strokeColor=none;fillColor=none;align=center;verticalAlign=middle;whiteSpace=wrap;rounded=0;" vertex="1" parent="1">
          <mxGeometry x="1040" y="1680" width="40" height="40" as="geometry" />
        </mxCell>
        <mxCell id="02hL3_lGpZv-LCDFnMkL-215" value="Exp" style="text;html=1;strokeColor=none;fillColor=none;align=center;verticalAlign=middle;whiteSpace=wrap;rounded=0;" vertex="1" parent="1">
          <mxGeometry x="1880" y="1260" width="40" height="40" as="geometry" />
        </mxCell>
        <mxCell id="02hL3_lGpZv-LCDFnMkL-216" value="Exp" style="text;html=1;strokeColor=none;fillColor=none;align=center;verticalAlign=middle;whiteSpace=wrap;rounded=0;" vertex="1" parent="1">
          <mxGeometry x="1880" y="1400" width="40" height="40" as="geometry" />
        </mxCell>
        <mxCell id="02hL3_lGpZv-LCDFnMkL-217" value="250" style="text;html=1;strokeColor=none;fillColor=none;align=center;verticalAlign=middle;whiteSpace=wrap;rounded=0;" vertex="1" parent="1">
          <mxGeometry x="1520" y="1540" width="40" height="40" as="geometry" />
        </mxCell>
        <mxCell id="02hL3_lGpZv-LCDFnMkL-218" value="250" style="text;html=1;strokeColor=none;fillColor=none;align=center;verticalAlign=middle;whiteSpace=wrap;rounded=0;" vertex="1" parent="1">
          <mxGeometry x="1520" y="1680" width="40" height="40" as="geometry" />
        </mxCell>
        <mxCell id="02hL3_lGpZv-LCDFnMkL-219" value="-&amp;gt; 3 Intervals" style="text;html=1;strokeColor=default;fillColor=none;align=center;verticalAlign=middle;whiteSpace=wrap;rounded=0;fontFamily=Courier New;dashed=1;" vertex="1" parent="1">
          <mxGeometry x="200" y="1360" width="120" height="20" as="geometry" />
        </mxCell>
        <mxCell id="02hL3_lGpZv-LCDFnMkL-220" value="-&amp;gt; 5 Intervals" style="text;html=1;strokeColor=default;fillColor=none;align=center;verticalAlign=middle;whiteSpace=wrap;rounded=0;fontFamily=Courier New;dashed=1;" vertex="1" parent="1">
          <mxGeometry x="520" y="1360" width="120" height="20" as="geometry" />
        </mxCell>
        <mxCell id="02hL3_lGpZv-LCDFnMkL-227" value="" style="endArrow=none;html=1;rounded=0;exitX=0.5;exitY=0;exitDx=0;exitDy=0;dashed=1;entryX=0.5;entryY=1;entryDx=0;entryDy=0;" edge="1" parent="1" source="02hL3_lGpZv-LCDFnMkL-219" target="02hL3_lGpZv-LCDFnMkL-107">
          <mxGeometry width="50" height="50" relative="1" as="geometry">
            <mxPoint x="950" y="890" as="sourcePoint" />
            <mxPoint x="390" y="1360" as="targetPoint" />
          </mxGeometry>
        </mxCell>
        <mxCell id="02hL3_lGpZv-LCDFnMkL-228" value="" style="endArrow=none;html=1;rounded=0;exitX=0.5;exitY=0;exitDx=0;exitDy=0;dashed=1;entryX=0.5;entryY=1;entryDx=0;entryDy=0;" edge="1" parent="1" source="02hL3_lGpZv-LCDFnMkL-220" target="02hL3_lGpZv-LCDFnMkL-112">
          <mxGeometry width="50" height="50" relative="1" as="geometry">
            <mxPoint x="470" y="1370" as="sourcePoint" />
            <mxPoint x="800" y="1360" as="targetPoint" />
          </mxGeometry>
        </mxCell>
        <mxCell id="02hL3_lGpZv-LCDFnMkL-235" value="" style="rounded=0;whiteSpace=wrap;html=1;fillColor=#FFE6CC;" vertex="1" parent="1">
          <mxGeometry y="1860" width="1920" height="40" as="geometry" />
        </mxCell>
        <mxCell id="02hL3_lGpZv-LCDFnMkL-236" value="LT Order E 1-&amp;gt;0&lt;br&gt;SR100, 2 Intervals" style="text;html=1;align=left;verticalAlign=middle;whiteSpace=wrap;rounded=0;fontFamily=Courier New;fontStyle=1;fillColor=none;strokeColor=default;" vertex="1" parent="1">
          <mxGeometry y="1860" width="160" height="40" as="geometry" />
        </mxCell>
        <mxCell id="02hL3_lGpZv-LCDFnMkL-237" value="E" style="rounded=0;whiteSpace=wrap;html=1;fontFamily=Courier New;fontStyle=1;fillColor=none;fontSize=18;" vertex="1" parent="1">
          <mxGeometry x="240" y="1860" width="40" height="40" as="geometry" />
        </mxCell>
        <mxCell id="02hL3_lGpZv-LCDFnMkL-238" value="W" style="rounded=0;whiteSpace=wrap;html=1;fontFamily=Courier New;fontStyle=1;fillColor=none;fontSize=18;" vertex="1" parent="1">
          <mxGeometry x="320" y="1860" width="40" height="40" as="geometry" />
        </mxCell>
        <mxCell id="02hL3_lGpZv-LCDFnMkL-239" value="P" style="rounded=0;whiteSpace=wrap;html=1;fontFamily=Courier New;fontStyle=1;fillColor=none;fontSize=18;" vertex="1" parent="1">
          <mxGeometry x="400" y="1860" width="40" height="40" as="geometry" />
        </mxCell>
        <mxCell id="02hL3_lGpZv-LCDFnMkL-240" value="" style="rounded=0;whiteSpace=wrap;html=1;fontFamily=Courier New;fontStyle=1;fillColor=#000000;glass=0;fillStyle=dashed;" vertex="1" parent="1">
          <mxGeometry x="440" y="1860" width="40" height="40" as="geometry" />
        </mxCell>
        <mxCell id="02hL3_lGpZv-LCDFnMkL-241" value="R" style="rounded=0;whiteSpace=wrap;html=1;fontFamily=Courier New;fontStyle=1;fillColor=none;fontSize=18;" vertex="1" parent="1">
          <mxGeometry x="480" y="1860" width="40" height="40" as="geometry" />
        </mxCell>
        <mxCell id="02hL3_lGpZv-LCDFnMkL-242" value="E" style="rounded=0;whiteSpace=wrap;html=1;fontFamily=Courier New;fontStyle=1;fillColor=none;fontSize=18;" vertex="1" parent="1">
          <mxGeometry x="560" y="1860" width="40" height="40" as="geometry" />
        </mxCell>
        <mxCell id="02hL3_lGpZv-LCDFnMkL-243" value="W" style="rounded=0;whiteSpace=wrap;html=1;fontFamily=Courier New;fontStyle=1;fillColor=none;fontSize=18;" vertex="1" parent="1">
          <mxGeometry x="640" y="1860" width="40" height="40" as="geometry" />
        </mxCell>
        <mxCell id="02hL3_lGpZv-LCDFnMkL-244" value="P" style="rounded=0;whiteSpace=wrap;html=1;fontFamily=Courier New;fontStyle=1;fillColor=none;fontSize=18;" vertex="1" parent="1">
          <mxGeometry x="720" y="1860" width="40" height="40" as="geometry" />
        </mxCell>
        <mxCell id="02hL3_lGpZv-LCDFnMkL-245" value="" style="rounded=0;whiteSpace=wrap;html=1;fontFamily=Courier New;fontStyle=1;fillColor=#000000;glass=0;fillStyle=dashed;" vertex="1" parent="1">
          <mxGeometry x="760" y="1860" width="40" height="40" as="geometry" />
        </mxCell>
        <mxCell id="02hL3_lGpZv-LCDFnMkL-246" value="R" style="rounded=0;whiteSpace=wrap;html=1;fontFamily=Courier New;fontStyle=1;fillColor=none;fontSize=18;" vertex="1" parent="1">
          <mxGeometry x="800" y="1860" width="40" height="40" as="geometry" />
        </mxCell>
        <mxCell id="02hL3_lGpZv-LCDFnMkL-247" value="E" style="rounded=0;whiteSpace=wrap;html=1;fontFamily=Courier New;fontStyle=1;fillColor=none;fontSize=18;" vertex="1" parent="1">
          <mxGeometry x="960" y="1860" width="40" height="40" as="geometry" />
        </mxCell>
        <mxCell id="02hL3_lGpZv-LCDFnMkL-248" value="W" style="rounded=0;whiteSpace=wrap;html=1;fontFamily=Courier New;fontStyle=1;fillColor=none;fontSize=18;" vertex="1" parent="1">
          <mxGeometry x="880" y="1860" width="40" height="40" as="geometry" />
        </mxCell>
        <mxCell id="02hL3_lGpZv-LCDFnMkL-249" value="W" style="rounded=0;whiteSpace=wrap;html=1;fontFamily=Courier New;fontStyle=1;fillColor=none;fontSize=18;" vertex="1" parent="1">
          <mxGeometry x="1880" y="1860" width="40" height="40" as="geometry" />
        </mxCell>
        <mxCell id="02hL3_lGpZv-LCDFnMkL-250" value="" style="rounded=0;whiteSpace=wrap;html=1;fillColor=#FFE6CC;" vertex="1" parent="1">
          <mxGeometry y="2000" width="1920" height="40" as="geometry" />
        </mxCell>
        <mxCell id="02hL3_lGpZv-LCDFnMkL-251" value="LT Order F 1-&amp;gt;0&lt;br&gt;SR100, 2 Intervals" style="text;html=1;align=left;verticalAlign=middle;whiteSpace=wrap;rounded=0;fontFamily=Courier New;fontStyle=1;fillColor=none;strokeColor=default;" vertex="1" parent="1">
          <mxGeometry y="2000" width="160" height="40" as="geometry" />
        </mxCell>
        <mxCell id="02hL3_lGpZv-LCDFnMkL-252" value="E" style="rounded=0;whiteSpace=wrap;html=1;fontFamily=Courier New;fontStyle=1;fillColor=none;fontSize=18;" vertex="1" parent="1">
          <mxGeometry x="240" y="2000" width="40" height="40" as="geometry" />
        </mxCell>
        <mxCell id="02hL3_lGpZv-LCDFnMkL-253" value="W" style="rounded=0;whiteSpace=wrap;html=1;fontFamily=Courier New;fontStyle=1;fillColor=none;fontSize=18;" vertex="1" parent="1">
          <mxGeometry x="320" y="2000" width="40" height="40" as="geometry" />
        </mxCell>
        <mxCell id="02hL3_lGpZv-LCDFnMkL-254" value="P" style="rounded=0;whiteSpace=wrap;html=1;fontFamily=Courier New;fontStyle=1;fillColor=none;fontSize=18;" vertex="1" parent="1">
          <mxGeometry x="400" y="2000" width="40" height="40" as="geometry" />
        </mxCell>
        <mxCell id="02hL3_lGpZv-LCDFnMkL-255" value="" style="rounded=0;whiteSpace=wrap;html=1;fontFamily=Courier New;fontStyle=1;fillColor=#000000;glass=0;fillStyle=dashed;" vertex="1" parent="1">
          <mxGeometry x="440" y="2000" width="40" height="40" as="geometry" />
        </mxCell>
        <mxCell id="02hL3_lGpZv-LCDFnMkL-256" value="R" style="rounded=0;whiteSpace=wrap;html=1;fontFamily=Courier New;fontStyle=1;fillColor=none;fontSize=18;" vertex="1" parent="1">
          <mxGeometry x="480" y="2000" width="40" height="40" as="geometry" />
        </mxCell>
        <mxCell id="02hL3_lGpZv-LCDFnMkL-257" value="E" style="rounded=0;whiteSpace=wrap;html=1;fontFamily=Courier New;fontStyle=1;fillColor=none;fontSize=18;" vertex="1" parent="1">
          <mxGeometry x="560" y="2000" width="40" height="40" as="geometry" />
        </mxCell>
        <mxCell id="02hL3_lGpZv-LCDFnMkL-258" value="W" style="rounded=0;whiteSpace=wrap;html=1;fontFamily=Courier New;fontStyle=1;fillColor=none;fontSize=18;" vertex="1" parent="1">
          <mxGeometry x="640" y="2000" width="40" height="40" as="geometry" />
        </mxCell>
        <mxCell id="02hL3_lGpZv-LCDFnMkL-259" value="P" style="rounded=0;whiteSpace=wrap;html=1;fontFamily=Courier New;fontStyle=1;fillColor=none;fontSize=18;" vertex="1" parent="1">
          <mxGeometry x="720" y="2000" width="40" height="40" as="geometry" />
        </mxCell>
        <mxCell id="02hL3_lGpZv-LCDFnMkL-260" value="" style="rounded=0;whiteSpace=wrap;html=1;fontFamily=Courier New;fontStyle=1;fillColor=#000000;glass=0;fillStyle=dashed;" vertex="1" parent="1">
          <mxGeometry x="760" y="2000" width="40" height="40" as="geometry" />
        </mxCell>
        <mxCell id="02hL3_lGpZv-LCDFnMkL-261" value="R" style="rounded=0;whiteSpace=wrap;html=1;fontFamily=Courier New;fontStyle=1;fillColor=none;fontSize=18;" vertex="1" parent="1">
          <mxGeometry x="800" y="2000" width="40" height="40" as="geometry" />
        </mxCell>
        <mxCell id="02hL3_lGpZv-LCDFnMkL-262" value="E" style="rounded=0;whiteSpace=wrap;html=1;fontFamily=Courier New;fontStyle=1;fillColor=none;fontSize=18;" vertex="1" parent="1">
          <mxGeometry x="960" y="2000" width="40" height="40" as="geometry" />
        </mxCell>
        <mxCell id="02hL3_lGpZv-LCDFnMkL-263" value="W" style="rounded=0;whiteSpace=wrap;html=1;fontFamily=Courier New;fontStyle=1;fillColor=none;fontSize=18;" vertex="1" parent="1">
          <mxGeometry x="880" y="2000" width="40" height="40" as="geometry" />
        </mxCell>
        <mxCell id="02hL3_lGpZv-LCDFnMkL-264" value="W" style="rounded=0;whiteSpace=wrap;html=1;fontFamily=Courier New;fontStyle=1;fillColor=none;fontSize=18;" vertex="1" parent="1">
          <mxGeometry x="1880" y="2000" width="40" height="40" as="geometry" />
        </mxCell>
        <mxCell id="02hL3_lGpZv-LCDFnMkL-265" value="P" style="rounded=0;whiteSpace=wrap;html=1;fontFamily=Courier New;fontStyle=1;fillColor=none;fontSize=18;" vertex="1" parent="1">
          <mxGeometry x="1040" y="2000" width="40" height="40" as="geometry" />
        </mxCell>
        <mxCell id="02hL3_lGpZv-LCDFnMkL-266" value="" style="rounded=0;whiteSpace=wrap;html=1;fontFamily=Courier New;fontStyle=1;fillColor=#000000;glass=0;fillStyle=dashed;" vertex="1" parent="1">
          <mxGeometry x="1080" y="2000" width="800" height="40" as="geometry" />
        </mxCell>
        <mxCell id="02hL3_lGpZv-LCDFnMkL-267" value="" style="rounded=0;whiteSpace=wrap;html=1;fillColor=#FFE6CC;" vertex="1" parent="1">
          <mxGeometry y="2140" width="1560" height="40" as="geometry" />
        </mxCell>
        <mxCell id="02hL3_lGpZv-LCDFnMkL-268" value="LT Order G 1-&amp;gt;0&lt;br&gt;SR100, 2 Intervals" style="text;html=1;align=left;verticalAlign=middle;whiteSpace=wrap;rounded=0;fontFamily=Courier New;fontStyle=1;fillColor=none;strokeColor=default;" vertex="1" parent="1">
          <mxGeometry y="2140" width="160" height="40" as="geometry" />
        </mxCell>
        <mxCell id="02hL3_lGpZv-LCDFnMkL-269" value="E" style="rounded=0;whiteSpace=wrap;html=1;fontFamily=Courier New;fontStyle=1;fillColor=none;fontSize=18;" vertex="1" parent="1">
          <mxGeometry x="240" y="2140" width="40" height="40" as="geometry" />
        </mxCell>
        <mxCell id="02hL3_lGpZv-LCDFnMkL-270" value="W" style="rounded=0;whiteSpace=wrap;html=1;fontFamily=Courier New;fontStyle=1;fillColor=none;fontSize=18;" vertex="1" parent="1">
          <mxGeometry x="320" y="2140" width="40" height="40" as="geometry" />
        </mxCell>
        <mxCell id="02hL3_lGpZv-LCDFnMkL-271" value="P" style="rounded=0;whiteSpace=wrap;html=1;fontFamily=Courier New;fontStyle=1;fillColor=none;fontSize=18;" vertex="1" parent="1">
          <mxGeometry x="400" y="2140" width="40" height="40" as="geometry" />
        </mxCell>
        <mxCell id="02hL3_lGpZv-LCDFnMkL-272" value="" style="rounded=0;whiteSpace=wrap;html=1;fontFamily=Courier New;fontStyle=1;fillColor=#000000;glass=0;fillStyle=dashed;" vertex="1" parent="1">
          <mxGeometry x="440" y="2140" width="40" height="40" as="geometry" />
        </mxCell>
        <mxCell id="02hL3_lGpZv-LCDFnMkL-273" value="R" style="rounded=0;whiteSpace=wrap;html=1;fontFamily=Courier New;fontStyle=1;fillColor=none;fontSize=18;" vertex="1" parent="1">
          <mxGeometry x="480" y="2140" width="40" height="40" as="geometry" />
        </mxCell>
        <mxCell id="02hL3_lGpZv-LCDFnMkL-274" value="E" style="rounded=0;whiteSpace=wrap;html=1;fontFamily=Courier New;fontStyle=1;fillColor=none;fontSize=18;" vertex="1" parent="1">
          <mxGeometry x="560" y="2140" width="40" height="40" as="geometry" />
        </mxCell>
        <mxCell id="02hL3_lGpZv-LCDFnMkL-275" value="W" style="rounded=0;whiteSpace=wrap;html=1;fontFamily=Courier New;fontStyle=1;fillColor=none;fontSize=18;" vertex="1" parent="1">
          <mxGeometry x="640" y="2140" width="40" height="40" as="geometry" />
        </mxCell>
        <mxCell id="02hL3_lGpZv-LCDFnMkL-276" value="P" style="rounded=0;whiteSpace=wrap;html=1;fontFamily=Courier New;fontStyle=1;fillColor=none;fontSize=18;" vertex="1" parent="1">
          <mxGeometry x="720" y="2140" width="40" height="40" as="geometry" />
        </mxCell>
        <mxCell id="02hL3_lGpZv-LCDFnMkL-277" value="" style="rounded=0;whiteSpace=wrap;html=1;fontFamily=Courier New;fontStyle=1;fillColor=#000000;glass=0;fillStyle=dashed;" vertex="1" parent="1">
          <mxGeometry x="760" y="2140" width="40" height="40" as="geometry" />
        </mxCell>
        <mxCell id="02hL3_lGpZv-LCDFnMkL-278" value="R" style="rounded=0;whiteSpace=wrap;html=1;fontFamily=Courier New;fontStyle=1;fillColor=none;fontSize=18;" vertex="1" parent="1">
          <mxGeometry x="800" y="2140" width="40" height="40" as="geometry" />
        </mxCell>
        <mxCell id="02hL3_lGpZv-LCDFnMkL-279" value="E" style="rounded=0;whiteSpace=wrap;html=1;fontFamily=Courier New;fontStyle=1;fillColor=none;fontSize=18;" vertex="1" parent="1">
          <mxGeometry x="960" y="2140" width="40" height="40" as="geometry" />
        </mxCell>
        <mxCell id="02hL3_lGpZv-LCDFnMkL-280" value="W" style="rounded=0;whiteSpace=wrap;html=1;fontFamily=Courier New;fontStyle=1;fillColor=none;fontSize=18;" vertex="1" parent="1">
          <mxGeometry x="880" y="2140" width="40" height="40" as="geometry" />
        </mxCell>
        <mxCell id="02hL3_lGpZv-LCDFnMkL-281" value="C" style="rounded=0;whiteSpace=wrap;html=1;fontFamily=Courier New;fontStyle=1;fillColor=none;fontSize=18;" vertex="1" parent="1">
          <mxGeometry x="1520" y="2140" width="40" height="40" as="geometry" />
        </mxCell>
        <mxCell id="02hL3_lGpZv-LCDFnMkL-282" value="" style="rounded=0;whiteSpace=wrap;html=1;fillColor=#FFE6CC;" vertex="1" parent="1">
          <mxGeometry y="2280" width="1560" height="40" as="geometry" />
        </mxCell>
        <mxCell id="02hL3_lGpZv-LCDFnMkL-283" value="LT Order H 1-&amp;gt;0&lt;br&gt;SR100, 2 Intervals" style="text;html=1;align=left;verticalAlign=middle;whiteSpace=wrap;rounded=0;fontFamily=Courier New;fontStyle=1;fillColor=none;strokeColor=default;" vertex="1" parent="1">
          <mxGeometry y="2280" width="160" height="40" as="geometry" />
        </mxCell>
        <mxCell id="02hL3_lGpZv-LCDFnMkL-284" value="E" style="rounded=0;whiteSpace=wrap;html=1;fontFamily=Courier New;fontStyle=1;fillColor=none;fontSize=18;" vertex="1" parent="1">
          <mxGeometry x="240" y="2280" width="40" height="40" as="geometry" />
        </mxCell>
        <mxCell id="02hL3_lGpZv-LCDFnMkL-285" value="W" style="rounded=0;whiteSpace=wrap;html=1;fontFamily=Courier New;fontStyle=1;fillColor=none;fontSize=18;" vertex="1" parent="1">
          <mxGeometry x="320" y="2280" width="40" height="40" as="geometry" />
        </mxCell>
        <mxCell id="02hL3_lGpZv-LCDFnMkL-286" value="P" style="rounded=0;whiteSpace=wrap;html=1;fontFamily=Courier New;fontStyle=1;fillColor=none;fontSize=18;" vertex="1" parent="1">
          <mxGeometry x="400" y="2280" width="40" height="40" as="geometry" />
        </mxCell>
        <mxCell id="02hL3_lGpZv-LCDFnMkL-287" value="" style="rounded=0;whiteSpace=wrap;html=1;fontFamily=Courier New;fontStyle=1;fillColor=#000000;glass=0;fillStyle=dashed;" vertex="1" parent="1">
          <mxGeometry x="440" y="2280" width="40" height="40" as="geometry" />
        </mxCell>
        <mxCell id="02hL3_lGpZv-LCDFnMkL-288" value="R" style="rounded=0;whiteSpace=wrap;html=1;fontFamily=Courier New;fontStyle=1;fillColor=none;fontSize=18;" vertex="1" parent="1">
          <mxGeometry x="480" y="2280" width="40" height="40" as="geometry" />
        </mxCell>
        <mxCell id="02hL3_lGpZv-LCDFnMkL-289" value="E" style="rounded=0;whiteSpace=wrap;html=1;fontFamily=Courier New;fontStyle=1;fillColor=none;fontSize=18;" vertex="1" parent="1">
          <mxGeometry x="560" y="2280" width="40" height="40" as="geometry" />
        </mxCell>
        <mxCell id="02hL3_lGpZv-LCDFnMkL-290" value="W" style="rounded=0;whiteSpace=wrap;html=1;fontFamily=Courier New;fontStyle=1;fillColor=none;fontSize=18;" vertex="1" parent="1">
          <mxGeometry x="640" y="2280" width="40" height="40" as="geometry" />
        </mxCell>
        <mxCell id="02hL3_lGpZv-LCDFnMkL-291" value="P" style="rounded=0;whiteSpace=wrap;html=1;fontFamily=Courier New;fontStyle=1;fillColor=none;fontSize=18;" vertex="1" parent="1">
          <mxGeometry x="720" y="2280" width="40" height="40" as="geometry" />
        </mxCell>
        <mxCell id="02hL3_lGpZv-LCDFnMkL-292" value="" style="rounded=0;whiteSpace=wrap;html=1;fontFamily=Courier New;fontStyle=1;fillColor=#000000;glass=0;fillStyle=dashed;" vertex="1" parent="1">
          <mxGeometry x="760" y="2280" width="40" height="40" as="geometry" />
        </mxCell>
        <mxCell id="02hL3_lGpZv-LCDFnMkL-293" value="R" style="rounded=0;whiteSpace=wrap;html=1;fontFamily=Courier New;fontStyle=1;fillColor=none;fontSize=18;" vertex="1" parent="1">
          <mxGeometry x="800" y="2280" width="40" height="40" as="geometry" />
        </mxCell>
        <mxCell id="02hL3_lGpZv-LCDFnMkL-294" value="E" style="rounded=0;whiteSpace=wrap;html=1;fontFamily=Courier New;fontStyle=1;fillColor=none;fontSize=18;" vertex="1" parent="1">
          <mxGeometry x="960" y="2280" width="40" height="40" as="geometry" />
        </mxCell>
        <mxCell id="02hL3_lGpZv-LCDFnMkL-295" value="W" style="rounded=0;whiteSpace=wrap;html=1;fontFamily=Courier New;fontStyle=1;fillColor=none;fontSize=18;" vertex="1" parent="1">
          <mxGeometry x="880" y="2280" width="40" height="40" as="geometry" />
        </mxCell>
        <mxCell id="02hL3_lGpZv-LCDFnMkL-296" value="C" style="rounded=0;whiteSpace=wrap;html=1;fontFamily=Courier New;fontStyle=1;fillColor=none;fontSize=18;" vertex="1" parent="1">
          <mxGeometry x="1520" y="2280" width="40" height="40" as="geometry" />
        </mxCell>
        <mxCell id="02hL3_lGpZv-LCDFnMkL-297" value="P" style="rounded=0;whiteSpace=wrap;html=1;fontFamily=Courier New;fontStyle=1;fillColor=none;fontSize=18;" vertex="1" parent="1">
          <mxGeometry x="1040" y="2280" width="40" height="40" as="geometry" />
        </mxCell>
        <mxCell id="02hL3_lGpZv-LCDFnMkL-298" value="" style="rounded=0;whiteSpace=wrap;html=1;fontFamily=Courier New;fontStyle=1;fillColor=#000000;glass=0;fillStyle=dashed;" vertex="1" parent="1">
          <mxGeometry x="1080" y="2280" width="440" height="40" as="geometry" />
        </mxCell>
        <mxCell id="02hL3_lGpZv-LCDFnMkL-299" value="20" style="text;html=1;strokeColor=none;fillColor=none;align=center;verticalAlign=middle;whiteSpace=wrap;rounded=0;" vertex="1" parent="1">
          <mxGeometry x="240" y="1820" width="40" height="40" as="geometry" />
        </mxCell>
        <mxCell id="02hL3_lGpZv-LCDFnMkL-300" value="20" style="text;html=1;strokeColor=none;fillColor=none;align=center;verticalAlign=middle;whiteSpace=wrap;rounded=0;" vertex="1" parent="1">
          <mxGeometry x="240" y="1960" width="40" height="40" as="geometry" />
        </mxCell>
        <mxCell id="02hL3_lGpZv-LCDFnMkL-301" value="20" style="text;html=1;strokeColor=none;fillColor=none;align=center;verticalAlign=middle;whiteSpace=wrap;rounded=0;" vertex="1" parent="1">
          <mxGeometry x="240" y="2100" width="40" height="40" as="geometry" />
        </mxCell>
        <mxCell id="02hL3_lGpZv-LCDFnMkL-302" value="20" style="text;html=1;strokeColor=none;fillColor=none;align=center;verticalAlign=middle;whiteSpace=wrap;rounded=0;" vertex="1" parent="1">
          <mxGeometry x="240" y="2240" width="40" height="40" as="geometry" />
        </mxCell>
        <mxCell id="02hL3_lGpZv-LCDFnMkL-303" value="40" style="text;html=1;strokeColor=none;fillColor=none;align=center;verticalAlign=middle;whiteSpace=wrap;rounded=0;" vertex="1" parent="1">
          <mxGeometry x="320" y="1820" width="40" height="40" as="geometry" />
        </mxCell>
        <mxCell id="02hL3_lGpZv-LCDFnMkL-304" value="40" style="text;html=1;strokeColor=none;fillColor=none;align=center;verticalAlign=middle;whiteSpace=wrap;rounded=0;" vertex="1" parent="1">
          <mxGeometry x="320" y="1960" width="40" height="40" as="geometry" />
        </mxCell>
        <mxCell id="02hL3_lGpZv-LCDFnMkL-305" value="40" style="text;html=1;strokeColor=none;fillColor=none;align=center;verticalAlign=middle;whiteSpace=wrap;rounded=0;" vertex="1" parent="1">
          <mxGeometry x="320" y="2100" width="40" height="40" as="geometry" />
        </mxCell>
        <mxCell id="02hL3_lGpZv-LCDFnMkL-306" value="40" style="text;html=1;strokeColor=none;fillColor=none;align=center;verticalAlign=middle;whiteSpace=wrap;rounded=0;" vertex="1" parent="1">
          <mxGeometry x="320" y="2240" width="40" height="40" as="geometry" />
        </mxCell>
        <mxCell id="02hL3_lGpZv-LCDFnMkL-307" value="60" style="text;html=1;strokeColor=none;fillColor=none;align=center;verticalAlign=middle;whiteSpace=wrap;rounded=0;" vertex="1" parent="1">
          <mxGeometry x="400" y="1820" width="40" height="40" as="geometry" />
        </mxCell>
        <mxCell id="02hL3_lGpZv-LCDFnMkL-308" value="60" style="text;html=1;strokeColor=none;fillColor=none;align=center;verticalAlign=middle;whiteSpace=wrap;rounded=0;" vertex="1" parent="1">
          <mxGeometry x="400" y="1960" width="40" height="40" as="geometry" />
        </mxCell>
        <mxCell id="02hL3_lGpZv-LCDFnMkL-309" value="60" style="text;html=1;strokeColor=none;fillColor=none;align=center;verticalAlign=middle;whiteSpace=wrap;rounded=0;" vertex="1" parent="1">
          <mxGeometry x="400" y="2100" width="40" height="40" as="geometry" />
        </mxCell>
        <mxCell id="02hL3_lGpZv-LCDFnMkL-310" value="60" style="text;html=1;strokeColor=none;fillColor=none;align=center;verticalAlign=middle;whiteSpace=wrap;rounded=0;" vertex="1" parent="1">
          <mxGeometry x="400" y="2240" width="40" height="40" as="geometry" />
        </mxCell>
        <mxCell id="02hL3_lGpZv-LCDFnMkL-311" value="80" style="text;html=1;strokeColor=none;fillColor=none;align=center;verticalAlign=middle;whiteSpace=wrap;rounded=0;" vertex="1" parent="1">
          <mxGeometry x="480" y="1820" width="40" height="40" as="geometry" />
        </mxCell>
        <mxCell id="02hL3_lGpZv-LCDFnMkL-312" value="80" style="text;html=1;strokeColor=none;fillColor=none;align=center;verticalAlign=middle;whiteSpace=wrap;rounded=0;" vertex="1" parent="1">
          <mxGeometry x="480" y="1960" width="40" height="40" as="geometry" />
        </mxCell>
        <mxCell id="02hL3_lGpZv-LCDFnMkL-313" value="80" style="text;html=1;strokeColor=none;fillColor=none;align=center;verticalAlign=middle;whiteSpace=wrap;rounded=0;" vertex="1" parent="1">
          <mxGeometry x="480" y="2100" width="40" height="40" as="geometry" />
        </mxCell>
        <mxCell id="02hL3_lGpZv-LCDFnMkL-314" value="80" style="text;html=1;strokeColor=none;fillColor=none;align=center;verticalAlign=middle;whiteSpace=wrap;rounded=0;" vertex="1" parent="1">
          <mxGeometry x="480" y="2240" width="40" height="40" as="geometry" />
        </mxCell>
        <mxCell id="02hL3_lGpZv-LCDFnMkL-315" value="100" style="text;html=1;strokeColor=none;fillColor=none;align=center;verticalAlign=middle;whiteSpace=wrap;rounded=0;" vertex="1" parent="1">
          <mxGeometry x="560" y="1820" width="40" height="40" as="geometry" />
        </mxCell>
        <mxCell id="02hL3_lGpZv-LCDFnMkL-316" value="100" style="text;html=1;strokeColor=none;fillColor=none;align=center;verticalAlign=middle;whiteSpace=wrap;rounded=0;" vertex="1" parent="1">
          <mxGeometry x="560" y="1960" width="40" height="40" as="geometry" />
        </mxCell>
        <mxCell id="02hL3_lGpZv-LCDFnMkL-317" value="100" style="text;html=1;strokeColor=none;fillColor=none;align=center;verticalAlign=middle;whiteSpace=wrap;rounded=0;" vertex="1" parent="1">
          <mxGeometry x="560" y="2100" width="40" height="40" as="geometry" />
        </mxCell>
        <mxCell id="02hL3_lGpZv-LCDFnMkL-318" value="100" style="text;html=1;strokeColor=none;fillColor=none;align=center;verticalAlign=middle;whiteSpace=wrap;rounded=0;" vertex="1" parent="1">
          <mxGeometry x="560" y="2240" width="40" height="40" as="geometry" />
        </mxCell>
        <mxCell id="02hL3_lGpZv-LCDFnMkL-319" value="120" style="text;html=1;strokeColor=none;fillColor=none;align=center;verticalAlign=middle;whiteSpace=wrap;rounded=0;" vertex="1" parent="1">
          <mxGeometry x="640" y="1820" width="40" height="40" as="geometry" />
        </mxCell>
        <mxCell id="02hL3_lGpZv-LCDFnMkL-320" value="120" style="text;html=1;strokeColor=none;fillColor=none;align=center;verticalAlign=middle;whiteSpace=wrap;rounded=0;" vertex="1" parent="1">
          <mxGeometry x="640" y="1960" width="40" height="40" as="geometry" />
        </mxCell>
        <mxCell id="02hL3_lGpZv-LCDFnMkL-321" value="120" style="text;html=1;strokeColor=none;fillColor=none;align=center;verticalAlign=middle;whiteSpace=wrap;rounded=0;" vertex="1" parent="1">
          <mxGeometry x="640" y="2100" width="40" height="40" as="geometry" />
        </mxCell>
        <mxCell id="02hL3_lGpZv-LCDFnMkL-322" value="120" style="text;html=1;strokeColor=none;fillColor=none;align=center;verticalAlign=middle;whiteSpace=wrap;rounded=0;" vertex="1" parent="1">
          <mxGeometry x="640" y="2240" width="40" height="40" as="geometry" />
        </mxCell>
        <mxCell id="02hL3_lGpZv-LCDFnMkL-323" value="140" style="text;html=1;strokeColor=none;fillColor=none;align=center;verticalAlign=middle;whiteSpace=wrap;rounded=0;" vertex="1" parent="1">
          <mxGeometry x="720" y="1820" width="40" height="40" as="geometry" />
        </mxCell>
        <mxCell id="02hL3_lGpZv-LCDFnMkL-324" value="140" style="text;html=1;strokeColor=none;fillColor=none;align=center;verticalAlign=middle;whiteSpace=wrap;rounded=0;" vertex="1" parent="1">
          <mxGeometry x="720" y="1960" width="40" height="40" as="geometry" />
        </mxCell>
        <mxCell id="02hL3_lGpZv-LCDFnMkL-325" value="140" style="text;html=1;strokeColor=none;fillColor=none;align=center;verticalAlign=middle;whiteSpace=wrap;rounded=0;" vertex="1" parent="1">
          <mxGeometry x="720" y="2100" width="40" height="40" as="geometry" />
        </mxCell>
        <mxCell id="02hL3_lGpZv-LCDFnMkL-326" value="140" style="text;html=1;strokeColor=none;fillColor=none;align=center;verticalAlign=middle;whiteSpace=wrap;rounded=0;" vertex="1" parent="1">
          <mxGeometry x="720" y="2240" width="40" height="40" as="geometry" />
        </mxCell>
        <mxCell id="02hL3_lGpZv-LCDFnMkL-327" value="160" style="text;html=1;strokeColor=none;fillColor=none;align=center;verticalAlign=middle;whiteSpace=wrap;rounded=0;" vertex="1" parent="1">
          <mxGeometry x="800" y="1820" width="40" height="40" as="geometry" />
        </mxCell>
        <mxCell id="02hL3_lGpZv-LCDFnMkL-328" value="160" style="text;html=1;strokeColor=none;fillColor=none;align=center;verticalAlign=middle;whiteSpace=wrap;rounded=0;" vertex="1" parent="1">
          <mxGeometry x="800" y="1960" width="40" height="40" as="geometry" />
        </mxCell>
        <mxCell id="02hL3_lGpZv-LCDFnMkL-329" value="160" style="text;html=1;strokeColor=none;fillColor=none;align=center;verticalAlign=middle;whiteSpace=wrap;rounded=0;" vertex="1" parent="1">
          <mxGeometry x="800" y="2100" width="40" height="40" as="geometry" />
        </mxCell>
        <mxCell id="02hL3_lGpZv-LCDFnMkL-330" value="160" style="text;html=1;strokeColor=none;fillColor=none;align=center;verticalAlign=middle;whiteSpace=wrap;rounded=0;" vertex="1" parent="1">
          <mxGeometry x="800" y="2240" width="40" height="40" as="geometry" />
        </mxCell>
        <mxCell id="02hL3_lGpZv-LCDFnMkL-331" value="180" style="text;html=1;strokeColor=none;fillColor=none;align=center;verticalAlign=middle;whiteSpace=wrap;rounded=0;" vertex="1" parent="1">
          <mxGeometry x="880" y="1820" width="40" height="40" as="geometry" />
        </mxCell>
        <mxCell id="02hL3_lGpZv-LCDFnMkL-332" value="180" style="text;html=1;strokeColor=none;fillColor=none;align=center;verticalAlign=middle;whiteSpace=wrap;rounded=0;" vertex="1" parent="1">
          <mxGeometry x="880" y="1960" width="40" height="40" as="geometry" />
        </mxCell>
        <mxCell id="02hL3_lGpZv-LCDFnMkL-333" value="180" style="text;html=1;strokeColor=none;fillColor=none;align=center;verticalAlign=middle;whiteSpace=wrap;rounded=0;" vertex="1" parent="1">
          <mxGeometry x="880" y="2100" width="40" height="40" as="geometry" />
        </mxCell>
        <mxCell id="02hL3_lGpZv-LCDFnMkL-334" value="180" style="text;html=1;strokeColor=none;fillColor=none;align=center;verticalAlign=middle;whiteSpace=wrap;rounded=0;" vertex="1" parent="1">
          <mxGeometry x="880" y="2240" width="40" height="40" as="geometry" />
        </mxCell>
        <mxCell id="02hL3_lGpZv-LCDFnMkL-335" value="200" style="text;html=1;strokeColor=none;fillColor=none;align=center;verticalAlign=middle;whiteSpace=wrap;rounded=0;" vertex="1" parent="1">
          <mxGeometry x="960" y="1820" width="40" height="40" as="geometry" />
        </mxCell>
        <mxCell id="02hL3_lGpZv-LCDFnMkL-336" value="200" style="text;html=1;strokeColor=none;fillColor=none;align=center;verticalAlign=middle;whiteSpace=wrap;rounded=0;" vertex="1" parent="1">
          <mxGeometry x="960" y="1960" width="40" height="40" as="geometry" />
        </mxCell>
        <mxCell id="02hL3_lGpZv-LCDFnMkL-337" value="200" style="text;html=1;strokeColor=none;fillColor=none;align=center;verticalAlign=middle;whiteSpace=wrap;rounded=0;" vertex="1" parent="1">
          <mxGeometry x="960" y="2100" width="40" height="40" as="geometry" />
        </mxCell>
        <mxCell id="02hL3_lGpZv-LCDFnMkL-338" value="200" style="text;html=1;strokeColor=none;fillColor=none;align=center;verticalAlign=middle;whiteSpace=wrap;rounded=0;" vertex="1" parent="1">
          <mxGeometry x="960" y="2240" width="40" height="40" as="geometry" />
        </mxCell>
        <mxCell id="02hL3_lGpZv-LCDFnMkL-339" value="220" style="text;html=1;strokeColor=none;fillColor=none;align=center;verticalAlign=middle;whiteSpace=wrap;rounded=0;" vertex="1" parent="1">
          <mxGeometry x="1040" y="1960" width="40" height="40" as="geometry" />
        </mxCell>
        <mxCell id="02hL3_lGpZv-LCDFnMkL-340" value="220" style="text;html=1;strokeColor=none;fillColor=none;align=center;verticalAlign=middle;whiteSpace=wrap;rounded=0;" vertex="1" parent="1">
          <mxGeometry x="1040" y="2240" width="40" height="40" as="geometry" />
        </mxCell>
        <mxCell id="02hL3_lGpZv-LCDFnMkL-341" value="Exp" style="text;html=1;strokeColor=none;fillColor=none;align=center;verticalAlign=middle;whiteSpace=wrap;rounded=0;" vertex="1" parent="1">
          <mxGeometry x="1880" y="1820" width="40" height="40" as="geometry" />
        </mxCell>
        <mxCell id="02hL3_lGpZv-LCDFnMkL-342" value="Exp" style="text;html=1;strokeColor=none;fillColor=none;align=center;verticalAlign=middle;whiteSpace=wrap;rounded=0;" vertex="1" parent="1">
          <mxGeometry x="1880" y="1960" width="40" height="40" as="geometry" />
        </mxCell>
        <mxCell id="02hL3_lGpZv-LCDFnMkL-343" value="250" style="text;html=1;strokeColor=none;fillColor=none;align=center;verticalAlign=middle;whiteSpace=wrap;rounded=0;" vertex="1" parent="1">
          <mxGeometry x="1520" y="2100" width="40" height="40" as="geometry" />
        </mxCell>
        <mxCell id="02hL3_lGpZv-LCDFnMkL-344" value="250" style="text;html=1;strokeColor=none;fillColor=none;align=center;verticalAlign=middle;whiteSpace=wrap;rounded=0;" vertex="1" parent="1">
          <mxGeometry x="1520" y="2240" width="40" height="40" as="geometry" />
        </mxCell>
        <mxCell id="02hL3_lGpZv-LCDFnMkL-362" value="-&amp;gt; 6 Intervals" style="text;html=1;strokeColor=default;fillColor=none;align=center;verticalAlign=middle;whiteSpace=wrap;rounded=0;fontFamily=Courier New;dashed=1;" vertex="1" parent="1">
          <mxGeometry x="920" y="1360" width="120" height="20" as="geometry" />
        </mxCell>
        <mxCell id="02hL3_lGpZv-LCDFnMkL-363" value="" style="endArrow=none;html=1;rounded=0;exitX=0.5;exitY=0;exitDx=0;exitDy=0;dashed=1;entryX=0.5;entryY=1;entryDx=0;entryDy=0;" edge="1" parent="1" source="02hL3_lGpZv-LCDFnMkL-362" target="02hL3_lGpZv-LCDFnMkL-117">
          <mxGeometry width="50" height="50" relative="1" as="geometry">
            <mxPoint x="590" y="1370" as="sourcePoint" />
            <mxPoint x="1030" y="1360" as="targetPoint" />
          </mxGeometry>
        </mxCell>
        <mxCell id="02hL3_lGpZv-LCDFnMkL-364" value="-&amp;gt; 3 Intervals" style="text;html=1;strokeColor=default;fillColor=none;align=center;verticalAlign=middle;whiteSpace=wrap;rounded=0;fontFamily=Courier New;dashed=1;" vertex="1" parent="1">
          <mxGeometry x="200" y="1500" width="120" height="20" as="geometry" />
        </mxCell>
        <mxCell id="02hL3_lGpZv-LCDFnMkL-365" value="-&amp;gt; 5 Intervals" style="text;html=1;strokeColor=default;fillColor=none;align=center;verticalAlign=middle;whiteSpace=wrap;rounded=0;fontFamily=Courier New;dashed=1;" vertex="1" parent="1">
          <mxGeometry x="520" y="1500" width="120" height="20" as="geometry" />
        </mxCell>
        <mxCell id="02hL3_lGpZv-LCDFnMkL-366" value="" style="endArrow=none;html=1;rounded=0;exitX=0.5;exitY=0;exitDx=0;exitDy=0;dashed=1;entryX=0.5;entryY=1;entryDx=0;entryDy=0;" edge="1" source="02hL3_lGpZv-LCDFnMkL-364" parent="1">
          <mxGeometry width="50" height="50" relative="1" as="geometry">
            <mxPoint x="950" y="1030" as="sourcePoint" />
            <mxPoint x="260" y="1480" as="targetPoint" />
          </mxGeometry>
        </mxCell>
        <mxCell id="02hL3_lGpZv-LCDFnMkL-367" value="" style="endArrow=none;html=1;rounded=0;exitX=0.5;exitY=0;exitDx=0;exitDy=0;dashed=1;entryX=0.5;entryY=1;entryDx=0;entryDy=0;" edge="1" source="02hL3_lGpZv-LCDFnMkL-365" parent="1">
          <mxGeometry width="50" height="50" relative="1" as="geometry">
            <mxPoint x="470" y="1510" as="sourcePoint" />
            <mxPoint x="580" y="1480" as="targetPoint" />
          </mxGeometry>
        </mxCell>
        <mxCell id="02hL3_lGpZv-LCDFnMkL-368" value="-&amp;gt; 6 Intervals" style="text;html=1;strokeColor=default;fillColor=none;align=center;verticalAlign=middle;whiteSpace=wrap;rounded=0;fontFamily=Courier New;dashed=1;" vertex="1" parent="1">
          <mxGeometry x="920" y="1500" width="120" height="20" as="geometry" />
        </mxCell>
        <mxCell id="02hL3_lGpZv-LCDFnMkL-369" value="" style="endArrow=none;html=1;rounded=0;exitX=0.5;exitY=0;exitDx=0;exitDy=0;dashed=1;entryX=0.5;entryY=1;entryDx=0;entryDy=0;" edge="1" source="02hL3_lGpZv-LCDFnMkL-368" parent="1">
          <mxGeometry width="50" height="50" relative="1" as="geometry">
            <mxPoint x="590" y="1510" as="sourcePoint" />
            <mxPoint x="980" y="1480" as="targetPoint" />
          </mxGeometry>
        </mxCell>
        <mxCell id="02hL3_lGpZv-LCDFnMkL-370" value="-&amp;gt; 3 Intervals" style="text;html=1;strokeColor=default;fillColor=none;align=center;verticalAlign=middle;whiteSpace=wrap;rounded=0;fontFamily=Courier New;dashed=1;" vertex="1" parent="1">
          <mxGeometry x="200" y="1640" width="120" height="20" as="geometry" />
        </mxCell>
        <mxCell id="02hL3_lGpZv-LCDFnMkL-371" value="-&amp;gt; 5 Intervals" style="text;html=1;strokeColor=default;fillColor=none;align=center;verticalAlign=middle;whiteSpace=wrap;rounded=0;fontFamily=Courier New;dashed=1;" vertex="1" parent="1">
          <mxGeometry x="520" y="1640" width="120" height="20" as="geometry" />
        </mxCell>
        <mxCell id="02hL3_lGpZv-LCDFnMkL-372" value="" style="endArrow=none;html=1;rounded=0;exitX=0.5;exitY=0;exitDx=0;exitDy=0;dashed=1;entryX=0.5;entryY=1;entryDx=0;entryDy=0;" edge="1" source="02hL3_lGpZv-LCDFnMkL-370" parent="1">
          <mxGeometry width="50" height="50" relative="1" as="geometry">
            <mxPoint x="950" y="1170" as="sourcePoint" />
            <mxPoint x="260" y="1620" as="targetPoint" />
          </mxGeometry>
        </mxCell>
        <mxCell id="02hL3_lGpZv-LCDFnMkL-373" value="" style="endArrow=none;html=1;rounded=0;exitX=0.5;exitY=0;exitDx=0;exitDy=0;dashed=1;entryX=0.5;entryY=1;entryDx=0;entryDy=0;" edge="1" source="02hL3_lGpZv-LCDFnMkL-371" parent="1">
          <mxGeometry width="50" height="50" relative="1" as="geometry">
            <mxPoint x="470" y="1650" as="sourcePoint" />
            <mxPoint x="580" y="1620" as="targetPoint" />
          </mxGeometry>
        </mxCell>
        <mxCell id="02hL3_lGpZv-LCDFnMkL-374" value="-&amp;gt; 6 Intervals" style="text;html=1;strokeColor=default;fillColor=none;align=center;verticalAlign=middle;whiteSpace=wrap;rounded=0;fontFamily=Courier New;dashed=1;" vertex="1" parent="1">
          <mxGeometry x="920" y="1640" width="120" height="20" as="geometry" />
        </mxCell>
        <mxCell id="02hL3_lGpZv-LCDFnMkL-375" value="" style="endArrow=none;html=1;rounded=0;exitX=0.5;exitY=0;exitDx=0;exitDy=0;dashed=1;entryX=0.5;entryY=1;entryDx=0;entryDy=0;" edge="1" source="02hL3_lGpZv-LCDFnMkL-374" parent="1">
          <mxGeometry width="50" height="50" relative="1" as="geometry">
            <mxPoint x="590" y="1650" as="sourcePoint" />
            <mxPoint x="980" y="1620" as="targetPoint" />
          </mxGeometry>
        </mxCell>
        <mxCell id="02hL3_lGpZv-LCDFnMkL-376" value="-&amp;gt; 3 Intervals" style="text;html=1;strokeColor=default;fillColor=none;align=center;verticalAlign=middle;whiteSpace=wrap;rounded=0;fontFamily=Courier New;dashed=1;" vertex="1" parent="1">
          <mxGeometry x="200" y="1780" width="120" height="20" as="geometry" />
        </mxCell>
        <mxCell id="02hL3_lGpZv-LCDFnMkL-377" value="-&amp;gt; 5 Intervals" style="text;html=1;strokeColor=default;fillColor=none;align=center;verticalAlign=middle;whiteSpace=wrap;rounded=0;fontFamily=Courier New;dashed=1;" vertex="1" parent="1">
          <mxGeometry x="520" y="1780" width="120" height="20" as="geometry" />
        </mxCell>
        <mxCell id="02hL3_lGpZv-LCDFnMkL-378" value="" style="endArrow=none;html=1;rounded=0;exitX=0.5;exitY=0;exitDx=0;exitDy=0;dashed=1;entryX=0.5;entryY=1;entryDx=0;entryDy=0;" edge="1" source="02hL3_lGpZv-LCDFnMkL-376" parent="1">
          <mxGeometry width="50" height="50" relative="1" as="geometry">
            <mxPoint x="950" y="1310" as="sourcePoint" />
            <mxPoint x="260" y="1760" as="targetPoint" />
          </mxGeometry>
        </mxCell>
        <mxCell id="02hL3_lGpZv-LCDFnMkL-379" value="" style="endArrow=none;html=1;rounded=0;exitX=0.5;exitY=0;exitDx=0;exitDy=0;dashed=1;entryX=0.5;entryY=1;entryDx=0;entryDy=0;" edge="1" source="02hL3_lGpZv-LCDFnMkL-377" parent="1">
          <mxGeometry width="50" height="50" relative="1" as="geometry">
            <mxPoint x="470" y="1790" as="sourcePoint" />
            <mxPoint x="580" y="1760" as="targetPoint" />
          </mxGeometry>
        </mxCell>
        <mxCell id="02hL3_lGpZv-LCDFnMkL-380" value="-&amp;gt; 6 Intervals" style="text;html=1;strokeColor=default;fillColor=none;align=center;verticalAlign=middle;whiteSpace=wrap;rounded=0;fontFamily=Courier New;dashed=1;" vertex="1" parent="1">
          <mxGeometry x="920" y="1780" width="120" height="20" as="geometry" />
        </mxCell>
        <mxCell id="02hL3_lGpZv-LCDFnMkL-381" value="" style="endArrow=none;html=1;rounded=0;exitX=0.5;exitY=0;exitDx=0;exitDy=0;dashed=1;entryX=0.5;entryY=1;entryDx=0;entryDy=0;" edge="1" source="02hL3_lGpZv-LCDFnMkL-380" parent="1">
          <mxGeometry width="50" height="50" relative="1" as="geometry">
            <mxPoint x="590" y="1790" as="sourcePoint" />
            <mxPoint x="980" y="1760" as="targetPoint" />
          </mxGeometry>
        </mxCell>
        <mxCell id="02hL3_lGpZv-LCDFnMkL-382" value="-&amp;gt; 3 Intervals" style="text;html=1;strokeColor=default;fillColor=none;align=center;verticalAlign=middle;whiteSpace=wrap;rounded=0;fontFamily=Courier New;dashed=1;" vertex="1" parent="1">
          <mxGeometry x="200" y="1920" width="120" height="20" as="geometry" />
        </mxCell>
        <mxCell id="02hL3_lGpZv-LCDFnMkL-383" value="-&amp;gt; 5 Intervals" style="text;html=1;strokeColor=default;fillColor=none;align=center;verticalAlign=middle;whiteSpace=wrap;rounded=0;fontFamily=Courier New;dashed=1;" vertex="1" parent="1">
          <mxGeometry x="520" y="1920" width="120" height="20" as="geometry" />
        </mxCell>
        <mxCell id="02hL3_lGpZv-LCDFnMkL-384" value="" style="endArrow=none;html=1;rounded=0;exitX=0.5;exitY=0;exitDx=0;exitDy=0;dashed=1;entryX=0.5;entryY=1;entryDx=0;entryDy=0;" edge="1" source="02hL3_lGpZv-LCDFnMkL-382" parent="1">
          <mxGeometry width="50" height="50" relative="1" as="geometry">
            <mxPoint x="950" y="1450" as="sourcePoint" />
            <mxPoint x="260" y="1900" as="targetPoint" />
          </mxGeometry>
        </mxCell>
        <mxCell id="02hL3_lGpZv-LCDFnMkL-385" value="" style="endArrow=none;html=1;rounded=0;exitX=0.5;exitY=0;exitDx=0;exitDy=0;dashed=1;entryX=0.5;entryY=1;entryDx=0;entryDy=0;" edge="1" source="02hL3_lGpZv-LCDFnMkL-383" parent="1">
          <mxGeometry width="50" height="50" relative="1" as="geometry">
            <mxPoint x="470" y="1930" as="sourcePoint" />
            <mxPoint x="580" y="1900" as="targetPoint" />
          </mxGeometry>
        </mxCell>
        <mxCell id="02hL3_lGpZv-LCDFnMkL-386" value="-&amp;gt; 6 Intervals" style="text;html=1;strokeColor=default;fillColor=none;align=center;verticalAlign=middle;whiteSpace=wrap;rounded=0;fontFamily=Courier New;dashed=1;" vertex="1" parent="1">
          <mxGeometry x="920" y="1920" width="120" height="20" as="geometry" />
        </mxCell>
        <mxCell id="02hL3_lGpZv-LCDFnMkL-387" value="" style="endArrow=none;html=1;rounded=0;exitX=0.5;exitY=0;exitDx=0;exitDy=0;dashed=1;entryX=0.5;entryY=1;entryDx=0;entryDy=0;" edge="1" source="02hL3_lGpZv-LCDFnMkL-386" parent="1">
          <mxGeometry width="50" height="50" relative="1" as="geometry">
            <mxPoint x="590" y="1930" as="sourcePoint" />
            <mxPoint x="980" y="1900" as="targetPoint" />
          </mxGeometry>
        </mxCell>
        <mxCell id="02hL3_lGpZv-LCDFnMkL-388" value="-&amp;gt; 3 Intervals" style="text;html=1;strokeColor=default;fillColor=none;align=center;verticalAlign=middle;whiteSpace=wrap;rounded=0;fontFamily=Courier New;dashed=1;" vertex="1" parent="1">
          <mxGeometry x="200" y="2060" width="120" height="20" as="geometry" />
        </mxCell>
        <mxCell id="02hL3_lGpZv-LCDFnMkL-389" value="-&amp;gt; 5 Intervals" style="text;html=1;strokeColor=default;fillColor=none;align=center;verticalAlign=middle;whiteSpace=wrap;rounded=0;fontFamily=Courier New;dashed=1;" vertex="1" parent="1">
          <mxGeometry x="520" y="2060" width="120" height="20" as="geometry" />
        </mxCell>
        <mxCell id="02hL3_lGpZv-LCDFnMkL-390" value="" style="endArrow=none;html=1;rounded=0;exitX=0.5;exitY=0;exitDx=0;exitDy=0;dashed=1;entryX=0.5;entryY=1;entryDx=0;entryDy=0;" edge="1" source="02hL3_lGpZv-LCDFnMkL-388" parent="1">
          <mxGeometry width="50" height="50" relative="1" as="geometry">
            <mxPoint x="950" y="1590" as="sourcePoint" />
            <mxPoint x="260" y="2040" as="targetPoint" />
          </mxGeometry>
        </mxCell>
        <mxCell id="02hL3_lGpZv-LCDFnMkL-391" value="" style="endArrow=none;html=1;rounded=0;exitX=0.5;exitY=0;exitDx=0;exitDy=0;dashed=1;entryX=0.5;entryY=1;entryDx=0;entryDy=0;" edge="1" source="02hL3_lGpZv-LCDFnMkL-389" parent="1">
          <mxGeometry width="50" height="50" relative="1" as="geometry">
            <mxPoint x="470" y="2070" as="sourcePoint" />
            <mxPoint x="580" y="2040" as="targetPoint" />
          </mxGeometry>
        </mxCell>
        <mxCell id="02hL3_lGpZv-LCDFnMkL-392" value="-&amp;gt; 6 Intervals" style="text;html=1;strokeColor=default;fillColor=none;align=center;verticalAlign=middle;whiteSpace=wrap;rounded=0;fontFamily=Courier New;dashed=1;" vertex="1" parent="1">
          <mxGeometry x="920" y="2060" width="120" height="20" as="geometry" />
        </mxCell>
        <mxCell id="02hL3_lGpZv-LCDFnMkL-393" value="" style="endArrow=none;html=1;rounded=0;exitX=0.5;exitY=0;exitDx=0;exitDy=0;dashed=1;entryX=0.5;entryY=1;entryDx=0;entryDy=0;" edge="1" source="02hL3_lGpZv-LCDFnMkL-392" parent="1">
          <mxGeometry width="50" height="50" relative="1" as="geometry">
            <mxPoint x="590" y="2070" as="sourcePoint" />
            <mxPoint x="980" y="2040" as="targetPoint" />
          </mxGeometry>
        </mxCell>
        <mxCell id="02hL3_lGpZv-LCDFnMkL-394" value="-&amp;gt; 3 Intervals" style="text;html=1;strokeColor=default;fillColor=none;align=center;verticalAlign=middle;whiteSpace=wrap;rounded=0;fontFamily=Courier New;dashed=1;" vertex="1" parent="1">
          <mxGeometry x="200" y="2200" width="120" height="20" as="geometry" />
        </mxCell>
        <mxCell id="02hL3_lGpZv-LCDFnMkL-395" value="-&amp;gt; 5 Intervals" style="text;html=1;strokeColor=default;fillColor=none;align=center;verticalAlign=middle;whiteSpace=wrap;rounded=0;fontFamily=Courier New;dashed=1;" vertex="1" parent="1">
          <mxGeometry x="520" y="2200" width="120" height="20" as="geometry" />
        </mxCell>
        <mxCell id="02hL3_lGpZv-LCDFnMkL-396" value="" style="endArrow=none;html=1;rounded=0;exitX=0.5;exitY=0;exitDx=0;exitDy=0;dashed=1;entryX=0.5;entryY=1;entryDx=0;entryDy=0;" edge="1" source="02hL3_lGpZv-LCDFnMkL-394" parent="1">
          <mxGeometry width="50" height="50" relative="1" as="geometry">
            <mxPoint x="950" y="1730" as="sourcePoint" />
            <mxPoint x="260" y="2180" as="targetPoint" />
          </mxGeometry>
        </mxCell>
        <mxCell id="02hL3_lGpZv-LCDFnMkL-397" value="" style="endArrow=none;html=1;rounded=0;exitX=0.5;exitY=0;exitDx=0;exitDy=0;dashed=1;entryX=0.5;entryY=1;entryDx=0;entryDy=0;" edge="1" source="02hL3_lGpZv-LCDFnMkL-395" parent="1">
          <mxGeometry width="50" height="50" relative="1" as="geometry">
            <mxPoint x="470" y="2210" as="sourcePoint" />
            <mxPoint x="580" y="2180" as="targetPoint" />
          </mxGeometry>
        </mxCell>
        <mxCell id="02hL3_lGpZv-LCDFnMkL-398" value="-&amp;gt; 6 Intervals" style="text;html=1;strokeColor=default;fillColor=none;align=center;verticalAlign=middle;whiteSpace=wrap;rounded=0;fontFamily=Courier New;dashed=1;" vertex="1" parent="1">
          <mxGeometry x="920" y="2200" width="120" height="20" as="geometry" />
        </mxCell>
        <mxCell id="02hL3_lGpZv-LCDFnMkL-399" value="" style="endArrow=none;html=1;rounded=0;exitX=0.5;exitY=0;exitDx=0;exitDy=0;dashed=1;entryX=0.5;entryY=1;entryDx=0;entryDy=0;" edge="1" source="02hL3_lGpZv-LCDFnMkL-398" parent="1">
          <mxGeometry width="50" height="50" relative="1" as="geometry">
            <mxPoint x="590" y="2210" as="sourcePoint" />
            <mxPoint x="980" y="2180" as="targetPoint" />
          </mxGeometry>
        </mxCell>
        <mxCell id="02hL3_lGpZv-LCDFnMkL-400" value="-&amp;gt; 3 Intervals" style="text;html=1;strokeColor=default;fillColor=none;align=center;verticalAlign=middle;whiteSpace=wrap;rounded=0;fontFamily=Courier New;dashed=1;" vertex="1" parent="1">
          <mxGeometry x="200" y="2340" width="120" height="20" as="geometry" />
        </mxCell>
        <mxCell id="02hL3_lGpZv-LCDFnMkL-401" value="-&amp;gt; 5 Intervals" style="text;html=1;strokeColor=default;fillColor=none;align=center;verticalAlign=middle;whiteSpace=wrap;rounded=0;fontFamily=Courier New;dashed=1;" vertex="1" parent="1">
          <mxGeometry x="520" y="2340" width="120" height="20" as="geometry" />
        </mxCell>
        <mxCell id="02hL3_lGpZv-LCDFnMkL-402" value="" style="endArrow=none;html=1;rounded=0;exitX=0.5;exitY=0;exitDx=0;exitDy=0;dashed=1;entryX=0.5;entryY=1;entryDx=0;entryDy=0;" edge="1" source="02hL3_lGpZv-LCDFnMkL-400" parent="1">
          <mxGeometry width="50" height="50" relative="1" as="geometry">
            <mxPoint x="950" y="1870" as="sourcePoint" />
            <mxPoint x="260" y="2320" as="targetPoint" />
          </mxGeometry>
        </mxCell>
        <mxCell id="02hL3_lGpZv-LCDFnMkL-403" value="" style="endArrow=none;html=1;rounded=0;exitX=0.5;exitY=0;exitDx=0;exitDy=0;dashed=1;entryX=0.5;entryY=1;entryDx=0;entryDy=0;" edge="1" source="02hL3_lGpZv-LCDFnMkL-401" parent="1">
          <mxGeometry width="50" height="50" relative="1" as="geometry">
            <mxPoint x="470" y="2350" as="sourcePoint" />
            <mxPoint x="580" y="2320" as="targetPoint" />
          </mxGeometry>
        </mxCell>
        <mxCell id="02hL3_lGpZv-LCDFnMkL-404" value="-&amp;gt; 6 Intervals" style="text;html=1;strokeColor=default;fillColor=none;align=center;verticalAlign=middle;whiteSpace=wrap;rounded=0;fontFamily=Courier New;dashed=1;" vertex="1" parent="1">
          <mxGeometry x="920" y="2340" width="120" height="20" as="geometry" />
        </mxCell>
        <mxCell id="02hL3_lGpZv-LCDFnMkL-405" value="" style="endArrow=none;html=1;rounded=0;exitX=0.5;exitY=0;exitDx=0;exitDy=0;dashed=1;entryX=0.5;entryY=1;entryDx=0;entryDy=0;" edge="1" source="02hL3_lGpZv-LCDFnMkL-404" parent="1">
          <mxGeometry width="50" height="50" relative="1" as="geometry">
            <mxPoint x="590" y="2350" as="sourcePoint" />
            <mxPoint x="980" y="2320" as="targetPoint" />
          </mxGeometry>
        </mxCell>
        <mxCell id="02hL3_lGpZv-LCDFnMkL-406" value="W" style="rounded=0;whiteSpace=wrap;html=1;fontFamily=Courier New;fontStyle=1;fillColor=none;fontSize=18;" vertex="1" parent="1">
          <mxGeometry x="1240" y="1720" width="40" height="40" as="geometry" />
        </mxCell>
        <mxCell id="02hL3_lGpZv-LCDFnMkL-407" value="230" style="text;html=1;strokeColor=none;fillColor=none;align=center;verticalAlign=middle;whiteSpace=wrap;rounded=0;" vertex="1" parent="1">
          <mxGeometry x="1240" y="1680" width="40" height="40" as="geometry" />
        </mxCell>
        <mxCell id="02hL3_lGpZv-LCDFnMkL-408" value="W" style="rounded=0;whiteSpace=wrap;html=1;fontFamily=Courier New;fontStyle=1;fillColor=none;fontSize=18;" vertex="1" parent="1">
          <mxGeometry x="1240" y="2280" width="40" height="40" as="geometry" />
        </mxCell>
        <mxCell id="02hL3_lGpZv-LCDFnMkL-409" value="230" style="text;html=1;strokeColor=none;fillColor=none;align=center;verticalAlign=middle;whiteSpace=wrap;rounded=0;" vertex="1" parent="1">
          <mxGeometry x="1240" y="2240" width="40" height="40" as="geometry" />
        </mxCell>
        <mxCell id="02hL3_lGpZv-LCDFnMkL-410" value="W" style="rounded=0;whiteSpace=wrap;html=1;fontFamily=Courier New;fontStyle=1;fillColor=none;fontSize=18;" vertex="1" parent="1">
          <mxGeometry x="1240" y="2000" width="40" height="40" as="geometry" />
        </mxCell>
        <mxCell id="02hL3_lGpZv-LCDFnMkL-411" value="230" style="text;html=1;strokeColor=none;fillColor=none;align=center;verticalAlign=middle;whiteSpace=wrap;rounded=0;" vertex="1" parent="1">
          <mxGeometry x="1240" y="1960" width="40" height="40" as="geometry" />
        </mxCell>
        <mxCell id="02hL3_lGpZv-LCDFnMkL-412" value="W" style="rounded=0;whiteSpace=wrap;html=1;fontFamily=Courier New;fontStyle=1;fillColor=none;fontSize=18;" vertex="1" parent="1">
          <mxGeometry x="1240" y="1440" width="40" height="40" as="geometry" />
        </mxCell>
        <mxCell id="02hL3_lGpZv-LCDFnMkL-413" value="230" style="text;html=1;strokeColor=none;fillColor=none;align=center;verticalAlign=middle;whiteSpace=wrap;rounded=0;" vertex="1" parent="1">
          <mxGeometry x="1240" y="1400" width="40" height="40" as="geometry" />
        </mxCell>
      </root>
    </mxGraphModel>
  </diagram>
</mxfile>
